NotoSansDisplay-SemiBold.ufo
<glyph name="uni018E" format="2">
  <advance width="528"/>
  <unicode hex="018E"/>
  <anchor x="264" y="0" name="bottom"/>
  <anchor x="264" y="714" name="top"/>
  <outline>
    <contour>
      <point x="446" y="714" type="line"/>
      <point x="55" y="714" type="line"/>
      <point x="55" y="590" type="line"/>
      <point x="283" y="590" type="line"/>
      <point x="283" y="433" type="line"/>
      <point x="72" y="433" type="line"/>
      <point x="72" y="309" type="line"/>
      <point x="283" y="309" type="line"/>
      <point x="283" y="125" type="line"/>
      <point x="55" y="125" type="line"/>
      <point x="55" y="0" type="line"/>
      <point x="446" y="0" type="line"/>
    </contour>
  </outline>
</glyph>
<glyph name="uni0191" format="2">
  <advance width="632"/>
  <unicode hex="0191"/>
  <anchor x="182" y="0" name="bottom"/>
  <anchor x="409" y="714" name="top"/>
  <anchor x="631" y="714" name="topright"/>
  <outline>
    <contour>
      <point x="178" y="-15" type="curve" smooth="yes"/>
      <point x="311" y="-15"/>
      <point x="383" y="56"/>
      <point x="383" y="179" type="curve" smooth="yes"/>
      <point x="383" y="310" type="line"/>
      <point x="574" y="310" type="line"/>
      <point x="574" y="434" type="line"/>
      <point x="383" y="434" type="line"/>
      <point x="383" y="590" type="line"/>
      <point x="590" y="590" type="line"/>
      <point x="590" y="714" type="line"/>
      <point x="222" y="714" type="line"/>
      <point x="222" y="172" type="line" smooth="yes"/>
      <point x="222" y="122"/>
      <point x="202" y="95"/>
      <point x="168" y="95" type="curve" smooth="yes"/>
      <point x="143" y="95"/>
      <point x="124" y="114"/>
      <point x="124" y="145" type="curve" smooth="yes"/>
      <point x="124" y="155"/>
      <point x="126" y="169"/>
      <point x="132" y="188" type="curve"/>
      <point x="10" y="223" type="line"/>
      <point x="0" y="199"/>
      <point x="-8" y="171"/>
      <point x="-8" y="139" type="curve" smooth="yes"/>
      <point x="-8" y="47"/>
      <point x="49" y="-15"/>
    </contour>
  </outline>
</glyph>
<glyph name="florin" format="2">
  <advance width="506"/>
  <unicode hex="0192"/>
  <anchor x="179" y="0" name="bottom"/>
  <anchor x="386" y="765" name="top"/>
  <anchor x="529" y="765" name="topright"/>
  <outline>
    <contour>
      <point x="185" y="-15" type="curve" smooth="yes"/>
      <point x="299" y="-15"/>
      <point x="383" y="44"/>
      <point x="383" y="175" type="curve" smooth="yes"/>
      <point x="383" y="434" type="line"/>
      <point x="499" y="434" type="line"/>
      <point x="499" y="546" type="line"/>
      <point x="383" y="546" type="line"/>
      <point x="383" y="580" type="line" smooth="yes"/>
      <point x="383" y="619"/>
      <point x="397" y="647"/>
      <point x="431" y="647" type="curve" smooth="yes"/>
      <point x="459" y="647"/>
      <point x="482" y="640"/>
      <point x="502" y="633" type="curve"/>
      <point x="539" y="742" type="line"/>
      <point x="501" y="754"/>
      <point x="458" y="765"/>
      <point x="404" y="765" type="curve" smooth="yes"/>
      <point x="285" y="765"/>
      <point x="225" y="725"/>
      <point x="225" y="586" type="curve" smooth="yes"/>
      <point x="225" y="546" type="line"/>
      <point x="150" y="506" type="line"/>
      <point x="150" y="434" type="line"/>
      <point x="223" y="434" type="line"/>
      <point x="223" y="175" type="line" smooth="yes"/>
      <point x="223" y="119"/>
      <point x="202" y="95"/>
      <point x="170" y="95" type="curve" smooth="yes"/>
      <point x="141" y="95"/>
      <point x="120" y="114"/>
      <point x="120" y="148" type="curve" smooth="yes"/>
      <point x="120" y="161"/>
      <point x="122" y="175"/>
      <point x="127" y="189" type="curve"/>
      <point x="5" y="225" type="line"/>
      <point x="-4" y="206"/>
      <point x="-12" y="182"/>
      <point x="-12" y="151" type="curve" smooth="yes"/>
      <point x="-12" y="53"/>
      <point x="58" y="-15"/>
    </contour>
  </outline>
</glyph>
<glyph name="uni024C" format="2">
  <advance width="628"/>
  <unicode hex="024C"/>
  <anchor x="335" y="0" name="bottom"/>
  <anchor x="319" y="714" name="top"/>
  <anchor x="610" y="714" name="topright"/>
  <outline>
    <contour>
      <point x="120" y="274" type="line"/>
      <point x="120" y="397" type="line"/>
      <point x="10" y="397" type="line"/>
      <point x="10" y="274" type="line"/>
    </contour>
    <component base="R"/>
  </outline>
</glyph>
<glyph name="uni024D" format="2">
  <advance width="434"/>
  <unicode hex="024D"/>
  <anchor x="151" y="0" name="bottom"/>
  <anchor x="248" y="546" name="top"/>
  <anchor x="415" y="546" name="topright"/>
  <outline>
    <contour>
      <point x="335" y="319" type="line"/>
      <point x="0" y="319" type="line"/>
      <point x="0" y="222" type="line"/>
      <point x="335" y="222" type="line"/>
    </contour>
    <component base="r"/>
  </outline>
</glyph>
<glyph name="uni024E" format="2">
  <advance width="605"/>
  <unicode hex="024E"/>
  <anchor x="303" y="0" name="bottom"/>
  <anchor x="303" y="714" name="top"/>
  <anchor x="586" y="714" name="topright"/>
  <outline>
    <contour>
      <point x="605" y="619" type="line"/>
      <point x="0" y="619" type="line"/>
      <point x="0" y="522" type="line"/>
      <point x="605" y="522" type="line"/>
    </contour>
    <component base="Y"/>
  </outline>
</glyph>
<glyph name="uni024F" format="2">
  <advance width="554"/>
  <unicode hex="024F"/>
  <anchor x="122" y="-240" name="bottom"/>
  <anchor x="278" y="546" name="top"/>
  <anchor x="536" y="546" name="topright"/>
  <outline>
    <contour>
      <point x="559" y="385" type="line"/>
      <point x="10" y="385" type="line"/>
      <point x="10" y="288" type="line"/>
      <point x="559" y="288" type="line"/>
    </contour>
    <component base="y"/>
  </outline>
</glyph>
<glyph name="uni0262" format="2">
  <advance width="568"/>
  <unicode hex="0262"/>
  <anchor x="284" y="0" name="bottom"/>
  <anchor x="284" y="546" name="top"/>
  <anchor x="551" y="556" name="topright"/>
  <outline>
    <contour>
      <point x="322" y="556" type="curve" smooth="yes"/>
      <point x="130" y="556"/>
      <point x="40" y="434"/>
      <point x="40" y="274" type="curve" smooth="yes"/>
      <point x="40" y="101"/>
      <point x="124" y="-10"/>
      <point x="309" y="-10" type="curve" smooth="yes"/>
      <point x="393" y="-10"/>
      <point x="466" y="7"/>
      <point x="515" y="33" type="curve"/>
      <point x="515" y="309" type="line"/>
      <point x="274" y="309" type="line"/>
      <point x="274" y="210" type="line"/>
      <point x="360" y="210" type="line"/>
      <point x="360" y="118" type="line"/>
      <point x="342" y="113"/>
      <point x="331" y="110"/>
      <point x="312" y="110" type="curve" smooth="yes"/>
      <point x="234" y="110"/>
      <point x="204" y="173"/>
      <point x="204" y="274" type="curve" smooth="yes"/>
      <point x="204" y="386"/>
      <point x="265" y="436"/>
      <point x="331" y="436" type="curve" smooth="yes"/>
      <point x="382" y="436"/>
      <point x="421" y="420"/>
      <point x="458" y="399" type="curve"/>
      <point x="506" y="514" type="line"/>
      <point x="439" y="546"/>
      <point x="385" y="556"/>
    </contour>
  </outline>
</glyph>
<glyph name="uni0268" format="2">
  <advance width="296"/>
  <unicode hex="0268"/>
  <anchor x="151" y="0" name="bottom"/>
  <anchor x="149" y="760" name="top"/>
  <anchor x="277" y="760" name="topright"/>
  <outline>
    <contour>
      <point x="295" y="327" type="line"/>
      <point x="0" y="327" type="line"/>
      <point x="0" y="230" type="line"/>
      <point x="295" y="230" type="line"/>
    </contour>
    <component base="i"/>
  </outline>
</glyph>
<glyph name="uni026A" format="2">
  <advance width="351"/>
  <unicode hex="026A"/>
  <anchor x="176" y="0" name="bottom"/>
  <anchor x="176" y="546" name="top"/>
  <outline>
    <contour>
      <point x="339" y="546" type="line"/>
      <point x="12" y="546" type="line"/>
      <point x="12" y="474" type="line"/>
      <point x="96" y="432" type="line"/>
      <point x="96" y="114" type="line"/>
      <point x="12" y="72" type="line"/>
      <point x="12" y="0" type="line"/>
      <point x="339" y="0" type="line"/>
      <point x="339" y="72" type="line"/>
      <point x="256" y="114" type="line"/>
      <point x="256" y="432" type="line"/>
      <point x="339" y="474" type="line"/>
    </contour>
  </outline>
</glyph>
<glyph name="uni0274" format="2">
  <advance width="690"/>
  <unicode hex="0274"/>
  <anchor x="345" y="0" name="bottom"/>
  <anchor x="345" y="546" name="top"/>
  <anchor x="624" y="546" name="topright"/>
  <outline>
    <contour>
      <point x="70" y="0" type="line"/>
      <point x="224" y="0" type="line"/>
      <point x="224" y="218" type="line" smooth="yes"/>
      <point x="224" y="255"/>
      <point x="218" y="349"/>
      <point x="217" y="382" type="curve"/>
      <point x="426" y="0" type="line"/>
      <point x="620" y="0" type="line"/>
      <point x="620" y="546" type="line"/>
      <point x="467" y="546" type="line"/>
      <point x="467" y="330" type="line" smooth="yes"/>
      <point x="467" y="302"/>
      <point x="471" y="198"/>
      <point x="476" y="163" type="curve"/>
      <point x="263" y="546" type="line"/>
      <point x="70" y="546" type="line"/>
    </contour>
  </outline>
</glyph>
<glyph name="uni0280" format="2">
  <advance width="588"/>
  <unicode hex="0280"/>
  <anchor x="294" y="0" name="bottom"/>
  <anchor x="294" y="546" name="top"/>
  <outline>
    <contour>
      <point x="79" y="0" type="line"/>
      <point x="240" y="0" type="line"/>
      <point x="240" y="203" type="line"/>
      <point x="294" y="203" type="line"/>
      <point x="413" y="0" type="line"/>
      <point x="588" y="0" type="line"/>
      <point x="436" y="230" type="line"/>
      <point x="498" y="254"/>
      <point x="542" y="297"/>
      <point x="542" y="381" type="curve" smooth="yes"/>
      <point x="542" y="491"/>
      <point x="457" y="546"/>
      <point x="331" y="546" type="curve" smooth="yes"/>
      <point x="79" y="546" type="line"/>
    </contour>
    <contour>
      <point x="240" y="303" type="line"/>
      <point x="240" y="441" type="line"/>
      <point x="319" y="441" type="line" smooth="yes"/>
      <point x="364" y="441"/>
      <point x="385" y="411"/>
      <point x="385" y="376" type="curve" smooth="yes"/>
      <point x="385" y="330"/>
      <point x="355" y="303"/>
      <point x="307" y="303" type="curve" smooth="yes"/>
    </contour>
  </outline>
</glyph>
<glyph name="uni028F" format="2">
  <advance width="559"/>
  <unicode hex="028F"/>
  <anchor x="280" y="0" name="bottom"/>
  <anchor x="280" y="546" name="top"/>
  <outline>
    <contour>
      <point x="561" y="546" type="line"/>
      <point x="379" y="546" type="line"/>
      <point x="281" y="339" type="line"/>
      <point x="180" y="546" type="line"/>
      <point x="-2" y="546" type="line"/>
      <point x="199" y="204" type="line"/>
      <point x="199" y="0" type="line"/>
      <point x="360" y="0" type="line"/>
      <point x="360" y="204" type="line"/>
    </contour>
  </outline>
</glyph>
<glyph name="uni029F" format="2">
  <advance width="457"/>
  <unicode hex="029F"/>
  <anchor x="229" y="0" name="bottom"/>
  <anchor x="229" y="546" name="top"/>
  <outline>
    <contour>
      <point x="68" y="0" type="line"/>
      <point x="435" y="0" type="line"/>
      <point x="435" y="114" type="line"/>
      <point x="228" y="114" type="line"/>
      <point x="228" y="546" type="line"/>
      <point x="68" y="546" type="line"/>
    </contour>
  </outline>
</glyph>
<glyph name="uptackbelowcomb" format="2">
  <unicode hex="031D"/>
  <anchor x="0" y="2" name="_bottom"/>
  <anchor x="2" y="-208" name="bottom"/>
  <outline>
    <contour>
      <point x="31" y="-48" type="line"/>
      <point x="-31" y="-48" type="line"/>
      <point x="-31" y="-148" type="line"/>
      <point x="-99" y="-148" type="line"/>
      <point x="-99" y="-208" type="line"/>
      <point x="98" y="-208" type="line"/>
      <point x="98" y="-148" type="line"/>
      <point x="31" y="-148" type="line"/>
    </contour>
  </outline>
</glyph>
<glyph name="arrowdoublerightbelowcomb" format="2">
  <unicode hex="0362"/>
  <anchor x="0" y="25" name="_bottom"/>
  <anchor x="2" y="-229" name="bottom"/>
  <outline>
    <contour>
      <point x="-374" y="-93" type="line"/>
      <point x="-374" y="-161" type="line"/>
      <point x="236" y="-161" type="line"/>
      <point x="236" y="-229" type="line"/>
      <point x="374" y="-127" type="line"/>
      <point x="236" y="-25" type="line"/>
      <point x="236" y="-93" type="line"/>
    </contour>
  </outline>
</glyph>
<glyph name="Archaicsampi" format="2">
  <advance width="652"/>
  <unicode hex="0372"/>
  <anchor x="326" y="0" name="bottom"/>
  <anchor x="326" y="714" name="top"/>
  <outline>
    <contour>
      <point x="407" y="0" type="line"/>
      <point x="407" y="588" type="line"/>
      <point x="599" y="588" type="line"/>
      <point x="599" y="714" type="line"/>
      <point x="59" y="714" type="line"/>
      <point x="59" y="588" type="line"/>
      <point x="245" y="588" type="line"/>
      <point x="245" y="0" type="line"/>
    </contour>
    <contour>
      <point x="17" y="714" type="line"/>
      <point x="17" y="322" type="line"/>
      <point x="145" y="322" type="line"/>
      <point x="145" y="714" type="line"/>
    </contour>
    <contour>
      <point x="507" y="714" type="line"/>
      <point x="507" y="322" type="line"/>
      <point x="635" y="322" type="line"/>
      <point x="635" y="714" type="line"/>
    </contour>
  </outline>
</glyph>
<glyph name="uni0374" format="2">
  <advance width="250"/>
  <unicode hex="0374"/>
  <outline>
    <contour>
      <point x="19" y="567" type="curve"/>
      <point x="19" y="554" type="line"/>
      <point x="113" y="554" type="line"/>
      <point x="157" y="596"/>
      <point x="205" y="660"/>
      <point x="231" y="704" type="curve"/>
      <point x="231" y="714" type="line"/>
      <point x="80" y="714" type="line"/>
      <point x="68" y="671"/>
      <point x="41" y="606"/>
    </contour>
  </outline>
</glyph>
<glyph name="uni0375" format="2">
  <advance width="250"/>
  <unicode hex="0375"/>
  <outline>
    <contour>
      <point x="231" y="-73" type="curve"/>
      <point x="231" y="-60" type="line"/>
      <point x="137" y="-60" type="line"/>
      <point x="93" y="-102"/>
      <point x="45" y="-166"/>
      <point x="19" y="-210" type="curve"/>
      <point x="19" y="-220" type="line"/>
      <point x="170" y="-220" type="line"/>
      <point x="183" y="-177"/>
      <point x="210" y="-112"/>
    </contour>
  </outline>
</glyph>
<glyph name="tonos" format="2">
  <advance width="526"/>
  <unicode hex="0384"/>
  <anchor x="261" y="546" name="_top"/>
  <outline>
    <contour>
      <point x="204" y="606" type="line"/>
      <point x="297" y="606" type="line"/>
      <point x="333" y="669"/>
      <point x="361" y="732"/>
      <point x="384" y="784" type="curve"/>
      <point x="384" y="796" type="line"/>
      <point x="240" y="796" type="line"/>
      <point x="234" y="745"/>
      <point x="217" y="668"/>
      <point x="204" y="621" type="curve"/>
    </contour>
  </outline>
</glyph>
<glyph name="dieresistonos" format="2">
  <advance width="536"/>
  <unicode hex="0385"/>
  <anchor x="268" y="546" name="_top"/>
  <outline>
    <contour>
      <point x="371" y="828" type="curve"/>
      <point x="371" y="838" type="line"/>
      <point x="241" y="838" type="line"/>
      <point x="238" y="795"/>
      <point x="226" y="730"/>
      <point x="217" y="691" type="curve"/>
      <point x="217" y="678" type="line"/>
      <point x="288" y="678" type="line"/>
      <point x="323" y="730"/>
      <point x="353" y="784"/>
    </contour>
    <contour>
      <point x="134" y="752" type="curve" smooth="yes"/>
      <point x="94" y="752"/>
      <point x="69" y="732"/>
      <point x="69" y="686" type="curve"/>
      <point x="69" y="642"/>
      <point x="94" y="621"/>
      <point x="134" y="621" type="curve" smooth="yes"/>
      <point x="172" y="621"/>
      <point x="200" y="642"/>
      <point x="200" y="686" type="curve" smooth="yes"/>
      <point x="200" y="732"/>
      <point x="172" y="752"/>
    </contour>
    <contour>
      <point x="402" y="752" type="curve" smooth="yes"/>
      <point x="361" y="752"/>
      <point x="335" y="732"/>
      <point x="335" y="686" type="curve"/>
      <point x="335" y="642"/>
      <point x="361" y="621"/>
      <point x="402" y="621" type="curve" smooth="yes"/>
      <point x="441" y="621"/>
      <point x="467" y="642"/>
      <point x="467" y="686" type="curve" smooth="yes"/>
      <point x="467" y="732"/>
      <point x="441" y="752"/>
    </contour>
  </outline>
</glyph>
<glyph name="Delta" format="2">
  <advance width="642"/>
  <unicode hex="0394"/>
  <anchor x="329" y="0" name="bottom"/>
  <anchor x="329" y="714" name="top"/>
  <outline>
    <contour>
      <point x="415" y="717" type="line"/>
      <point x="228" y="717" type="line"/>
      <point x="21" y="87" type="line"/>
      <point x="21" y="0" type="line"/>
      <point x="621" y="0" type="line"/>
      <point x="621" y="86" type="line"/>
    </contour>
    <contour>
      <point x="339" y="501" type="curve" smooth="yes"/>
      <point x="450" y="126" type="line"/>
      <point x="192" y="126" type="line"/>
      <point x="302" y="499" type="line" smooth="yes"/>
      <point x="307" y="515"/>
      <point x="318" y="581"/>
      <point x="321" y="593" type="curve"/>
      <point x="323" y="581"/>
      <point x="335" y="515"/>
    </contour>
  </outline>
</glyph>
<glyph name="Theta" format="2">
  <advance width="796"/>
  <unicode hex="0398"/>
  <anchor x="374" y="0" name="bottom"/>
  <anchor x="374" y="725" name="top"/>
  <anchor x="374" y="357" name="center"/>
  <anchor x="730" y="725" name="topright"/>
  <outline>
    <contour>
      <point x="503" y="425" type="line"/>
      <point x="249" y="425" type="line"/>
      <point x="249" y="301" type="line"/>
      <point x="503" y="301" type="line"/>
    </contour>
    <component base="O"/>
  </outline>
</glyph>
<glyph name="Lambda" format="2">
  <advance width="632"/>
  <unicode hex="039B"/>
  <anchor x="316" y="0" name="bottom"/>
  <anchor x="316" y="714" name="top"/>
  <outline>
    <contour>
      <point x="408" y="714" type="line"/>
      <point x="224" y="714" type="line"/>
      <point x="0" y="0" type="line"/>
      <point x="173" y="0" type="line"/>
      <point x="284" y="428" type="line" smooth="yes"/>
      <point x="292" y="457"/>
      <point x="311" y="546"/>
      <point x="316" y="587" type="curve"/>
      <point x="321" y="549"/>
      <point x="341" y="457"/>
      <point x="349" y="429" type="curve" smooth="yes"/>
      <point x="458" y="0" type="line"/>
      <point x="632" y="0" type="line"/>
    </contour>
  </outline>
</glyph>
<glyph name="Xi" format="2">
  <advance width="538"/>
  <unicode hex="039E"/>
  <anchor x="269" y="0" name="bottom"/>
  <anchor x="269" y="714" name="top"/>
  <outline>
    <contour>
      <point x="37" y="0" type="line"/>
      <point x="501" y="0" type="line"/>
      <point x="501" y="125" type="line"/>
      <point x="37" y="125" type="line"/>
    </contour>
    <contour>
      <point x="93" y="309" type="line"/>
      <point x="444" y="309" type="line"/>
      <point x="444" y="433" type="line"/>
      <point x="93" y="433" type="line"/>
    </contour>
    <contour>
      <point x="56" y="590" type="line"/>
      <point x="482" y="590" type="line"/>
      <point x="482" y="714" type="line"/>
      <point x="56" y="714" type="line"/>
    </contour>
  </outline>
</glyph>
<glyph name="Pi" format="2">
  <advance width="698"/>
  <unicode hex="03A0"/>
  <anchor x="350" y="0" name="bottom"/>
  <anchor x="350" y="714" name="top"/>
  <outline>
    <contour>
      <point x="79" y="0" type="line"/>
      <point x="241" y="0" type="line"/>
      <point x="241" y="588" type="line"/>
      <point x="457" y="588" type="line"/>
      <point x="457" y="0" type="line"/>
      <point x="619" y="0" type="line"/>
      <point x="619" y="714" type="line"/>
      <point x="79" y="714" type="line"/>
    </contour>
  </outline>
</glyph>
<glyph name="Sigma" format="2">
  <advance width="561"/>
  <unicode hex="03A3"/>
  <anchor x="281" y="0" name="bottom"/>
  <anchor x="281" y="714" name="top"/>
  <outline>
    <contour>
      <point x="35" y="0" type="line"/>
      <point x="528" y="0" type="line"/>
      <point x="528" y="125" type="line"/>
      <point x="330" y="125" type="line" smooth="yes"/>
      <point x="285" y="125"/>
      <point x="249" y="123"/>
      <point x="207" y="119" type="curve"/>
      <point x="418" y="375" type="line"/>
      <point x="217" y="595" type="line"/>
      <point x="253" y="591"/>
      <point x="287" y="590"/>
      <point x="323" y="590" type="curve" smooth="yes"/>
      <point x="501" y="590" type="line"/>
      <point x="501" y="714" type="line"/>
      <point x="41" y="714" type="line"/>
      <point x="41" y="598" type="line"/>
      <point x="245" y="374" type="line"/>
      <point x="35" y="119" type="line"/>
    </contour>
  </outline>
</glyph>
<glyph name="Psi" format="2">
  <advance width="849"/>
  <unicode hex="03A8"/>
  <anchor x="425" y="0" name="bottom"/>
  <anchor x="425" y="714" name="top"/>
  <outline>
    <contour>
      <point x="798" y="714" type="line"/>
      <point x="642" y="714" type="line"/>
      <point x="642" y="478" type="line" smooth="yes"/>
      <point x="642" y="361"/>
      <point x="588" y="335"/>
      <point x="500" y="335" type="curve"/>
      <point x="500" y="714" type="line"/>
      <point x="349" y="714" type="line"/>
      <point x="349" y="335" type="line"/>
      <point x="251" y="335"/>
      <point x="207" y="363"/>
      <point x="207" y="480" type="curve" smooth="yes"/>
      <point x="207" y="714" type="line"/>
      <point x="51" y="714" type="line"/>
      <point x="51" y="478" type="line" smooth="yes"/>
      <point x="51" y="307"/>
      <point x="125" y="213"/>
      <point x="349" y="213" type="curve"/>
      <point x="349" y="0" type="line"/>
      <point x="500" y="0" type="line"/>
      <point x="500" y="213" type="line"/>
      <point x="722" y="213"/>
      <point x="798" y="303"/>
      <point x="798" y="480" type="curve" smooth="yes"/>
    </contour>
  </outline>
</glyph>
<glyph name="Omega" format="2">
  <advance width="744"/>
  <unicode hex="03A9"/>
  <anchor x="372" y="0" name="bottom"/>
  <anchor x="372" y="725" name="top"/>
  <anchor x="19" y="714" name="topleft"/>
  <outline>
    <contour>
      <point x="372" y="599" type="curve" smooth="yes"/>
      <point x="464" y="599"/>
      <point x="529" y="528"/>
      <point x="529" y="395" type="curve" smooth="yes"/>
      <point x="529" y="281"/>
      <point x="502" y="188"/>
      <point x="416" y="136" type="curve"/>
      <point x="416" y="0" type="line"/>
      <point x="720" y="0" type="line"/>
      <point x="720" y="127" type="line"/>
      <point x="546" y="127" type="line"/>
      <point x="643" y="185"/>
      <point x="695" y="291"/>
      <point x="695" y="425" type="curve" smooth="yes"/>
      <point x="695" y="607"/>
      <point x="567" y="725"/>
      <point x="372" y="725" type="curve" smooth="yes"/>
      <point x="175" y="725"/>
      <point x="48" y="607"/>
      <point x="48" y="426" type="curve" smooth="yes"/>
      <point x="48" y="292"/>
      <point x="101" y="184"/>
      <point x="195" y="127" type="curve"/>
      <point x="24" y="127" type="line"/>
      <point x="24" y="0" type="line"/>
      <point x="325" y="0" type="line"/>
      <point x="325" y="136" type="line"/>
      <point x="242" y="190"/>
      <point x="215" y="279"/>
      <point x="215" y="394" type="curve" smooth="yes"/>
      <point x="215" y="528"/>
      <point x="280" y="599"/>
    </contour>
  </outline>
</glyph>
<glyph name="beta" format="2">
  <advance width="632"/>
  <unicode hex="03B2"/>
  <anchor x="384" y="0" name="bottom"/>
  <anchor x="321" y="765" name="top"/>
  <anchor x="558" y="765" name="topright"/>
  <outline>
    <contour>
      <point x="321" y="765" type="curve" smooth="yes"/>
      <point x="178" y="765"/>
      <point x="68" y="696"/>
      <point x="68" y="535" type="curve" smooth="yes"/>
      <point x="68" y="-240" type="line"/>
      <point x="228" y="-240" type="line"/>
      <point x="228" y="21" type="line"/>
      <point x="265" y="1"/>
      <point x="318" y="-10"/>
      <point x="374" y="-10" type="curve" smooth="yes"/>
      <point x="508" y="-10"/>
      <point x="597" y="71"/>
      <point x="597" y="211" type="curve" smooth="yes"/>
      <point x="597" y="332"/>
      <point x="530" y="388"/>
      <point x="427" y="402" type="curve"/>
      <point x="427" y="405" type="line"/>
      <point x="510" y="420"/>
      <point x="558" y="477"/>
      <point x="558" y="573" type="curve" smooth="yes"/>
      <point x="558" y="701"/>
      <point x="458" y="765"/>
    </contour>
    <contour>
      <point x="316" y="649" type="curve" smooth="yes"/>
      <point x="366" y="649"/>
      <point x="399" y="618"/>
      <point x="399" y="555" type="curve" smooth="yes"/>
      <point x="399" y="494"/>
      <point x="374" y="452"/>
      <point x="318" y="452" type="curve" smooth="yes"/>
      <point x="297" y="452" type="line"/>
      <point x="297" y="334" type="line"/>
      <point x="327" y="334" type="line" smooth="yes"/>
      <point x="382" y="334"/>
      <point x="434" y="306"/>
      <point x="434" y="224" type="curve" smooth="yes"/>
      <point x="434" y="152"/>
      <point x="397" y="109"/>
      <point x="328" y="109" type="curve" smooth="yes"/>
      <point x="296" y="109"/>
      <point x="252" y="122"/>
      <point x="228" y="143" type="curve"/>
      <point x="228" y="521" type="line" smooth="yes"/>
      <point x="228" y="622"/>
      <point x="268" y="649"/>
    </contour>
  </outline>
</glyph>
<glyph name="gamma" format="2">
  <advance width="550"/>
  <unicode hex="03B3"/>
  <anchor x="275" y="-240" name="bottom"/>
  <anchor x="275" y="546" name="top"/>
  <anchor x="541" y="546" name="topright"/>
  <outline>
    <contour>
      <point x="361" y="9" type="curve" smooth="yes"/>
      <point x="552" y="546" type="line"/>
      <point x="386" y="546" type="line"/>
      <point x="317" y="298" type="line" smooth="yes"/>
      <point x="299" y="232"/>
      <point x="281" y="151"/>
      <point x="277" y="121" type="curve"/>
      <point x="274" y="121" type="line"/>
      <point x="268" y="156"/>
      <point x="245" y="252"/>
      <point x="231" y="305" type="curve" smooth="yes"/>
      <point x="166" y="546" type="line"/>
      <point x="0" y="546" type="line"/>
      <point x="192" y="6" type="line"/>
      <point x="167" y="-76"/>
      <point x="147" y="-185"/>
      <point x="147" y="-240" type="curve"/>
      <point x="316" y="-240" type="line"/>
      <point x="316" y="-173"/>
      <point x="332" y="-72"/>
    </contour>
  </outline>
</glyph>
<glyph name="delta" format="2">
  <advance width="590"/>
  <unicode hex="03B4"/>
  <anchor x="295" y="0" name="bottom"/>
  <anchor x="295" y="765" name="top"/>
  <outline>
    <contour>
      <point x="326" y="765" type="curve" smooth="yes"/>
      <point x="187" y="765"/>
      <point x="110" y="712"/>
      <point x="110" y="615" type="curve" smooth="yes"/>
      <point x="110" y="541"/>
      <point x="152" y="487"/>
      <point x="214" y="448" type="curve"/>
      <point x="104" y="417"/>
      <point x="41" y="352"/>
      <point x="41" y="214" type="curve" smooth="yes"/>
      <point x="41" y="71"/>
      <point x="147" y="-10"/>
      <point x="292" y="-10" type="curve" smooth="yes"/>
      <point x="447" y="-10"/>
      <point x="549" y="71"/>
      <point x="549" y="250" type="curve" smooth="yes"/>
      <point x="549" y="354"/>
      <point x="500" y="433"/>
      <point x="386" y="494" type="curve" smooth="yes"/>
      <point x="297" y="541"/>
      <point x="263" y="571"/>
      <point x="263" y="606" type="curve" smooth="yes"/>
      <point x="263" y="632"/>
      <point x="280" y="655"/>
      <point x="324" y="655" type="curve" smooth="yes"/>
      <point x="372" y="655"/>
      <point x="426" y="635"/>
      <point x="486" y="606" type="curve"/>
      <point x="547" y="711" type="line"/>
      <point x="478" y="744"/>
      <point x="410" y="765"/>
    </contour>
    <contour>
      <point x="303" y="387" type="curve"/>
      <point x="352" y="355"/>
      <point x="386" y="309"/>
      <point x="386" y="240" type="curve" smooth="yes"/>
      <point x="386" y="156"/>
      <point x="352" y="110"/>
      <point x="294" y="110" type="curve" smooth="yes"/>
      <point x="236" y="110"/>
      <point x="204" y="157"/>
      <point x="204" y="220" type="curve" smooth="yes"/>
      <point x="204" y="325"/>
      <point x="261" y="372"/>
    </contour>
  </outline>
</glyph>
<glyph name="zeta" format="2">
  <advance width="474"/>
  <unicode hex="03B6"/>
  <anchor x="237" y="-185" name="bottom"/>
  <anchor x="237" y="760" name="top"/>
  <outline>
    <contour>
      <point x="475" y="-18" type="curve"/>
      <point x="475" y="42"/>
      <point x="441" y="85"/>
      <point x="332" y="108" type="curve" smooth="yes"/>
      <point x="243" y="127"/>
      <point x="204" y="138"/>
      <point x="204" y="235" type="curve" smooth="yes"/>
      <point x="204" y="321"/>
      <point x="244" y="453"/>
      <point x="469" y="671" type="curve"/>
      <point x="469" y="760" type="line"/>
      <point x="67" y="760" type="line"/>
      <point x="67" y="651" type="line"/>
      <point x="203" y="651" type="line"/>
      <point x="225" y="651"/>
      <point x="270" y="653"/>
      <point x="292" y="659" type="curve"/>
      <point x="137" y="537"/>
      <point x="41" y="398"/>
      <point x="41" y="228" type="curve" smooth="yes"/>
      <point x="41" y="96"/>
      <point x="92" y="28"/>
      <point x="223" y="4" type="curve" smooth="yes"/>
      <point x="304" y="-11"/>
      <point x="318" y="-24"/>
      <point x="318" y="-41" type="curve" smooth="yes"/>
      <point x="318" y="-74"/>
      <point x="290" y="-134"/>
      <point x="250" y="-185" type="curve"/>
      <point x="412" y="-185" type="line"/>
      <point x="446" y="-139"/>
      <point x="475" y="-76"/>
    </contour>
  </outline>
</glyph>
<glyph name="eta" format="2">
  <advance width="624"/>
  <unicode hex="03B7"/>
  <anchor x="312" y="-240" name="bottom"/>
  <anchor x="322" y="546" name="top"/>
  <outline>
    <contour>
      <point x="376" y="556" type="curve" smooth="yes"/>
      <point x="312" y="556"/>
      <point x="252" y="532"/>
      <point x="219" y="476" type="curve"/>
      <point x="210" y="476" type="line"/>
      <point x="189" y="546" type="line"/>
      <point x="68" y="546" type="line"/>
      <point x="68" y="0" type="line"/>
      <point x="228" y="0" type="line"/>
      <point x="228" y="257" type="line" smooth="yes"/>
      <point x="228" y="373"/>
      <point x="249" y="437"/>
      <point x="326" y="437" type="curve" smooth="yes"/>
      <point x="377" y="437"/>
      <point x="399" y="397"/>
      <point x="399" y="319" type="curve" smooth="yes"/>
      <point x="399" y="-240" type="line"/>
      <point x="559" y="-240" type="line"/>
      <point x="559" y="356" type="line"/>
      <point x="559" y="496"/>
      <point x="482" y="556"/>
    </contour>
  </outline>
</glyph>
<glyph name="theta" format="2">
  <advance width="592"/>
  <unicode hex="03B8"/>
  <anchor x="296" y="0" name="bottom"/>
  <anchor x="296" y="765" name="top"/>
  <anchor x="517" y="765" name="topright"/>
  <outline>
    <contour>
      <point x="551" y="378" type="curve" smooth="yes"/>
      <point x="551" y="623"/>
      <point x="467" y="765"/>
      <point x="295" y="765" type="curve" smooth="yes"/>
      <point x="111" y="765"/>
      <point x="41" y="621"/>
      <point x="41" y="378" type="curve" smooth="yes"/>
      <point x="41" y="135"/>
      <point x="124" y="-10"/>
      <point x="295" y="-10" type="curve" smooth="yes"/>
      <point x="480" y="-10"/>
      <point x="551" y="135"/>
    </contour>
    <contour>
      <point x="295" y="98" type="curve" smooth="yes"/>
      <point x="232" y="98"/>
      <point x="205" y="175"/>
      <point x="204" y="325" type="curve"/>
      <point x="388" y="325" type="line"/>
      <point x="386" y="173"/>
      <point x="358" y="98"/>
    </contour>
    <contour>
      <point x="297" y="657" type="curve" smooth="yes"/>
      <point x="357" y="657"/>
      <point x="385" y="583"/>
      <point x="389" y="436" type="curve"/>
      <point x="205" y="436" type="line"/>
      <point x="209" y="583"/>
      <point x="235" y="657"/>
    </contour>
  </outline>
</glyph>
<glyph name="lambda" format="2">
  <advance width="602"/>
  <unicode hex="03BB"/>
  <anchor x="301" y="0" name="bottom"/>
  <anchor x="301" y="766" name="top"/>
  <outline>
    <contour>
      <point x="2" y="0" type="line"/>
      <point x="168" y="0" type="line"/>
      <point x="257" y="237" type="line" smooth="yes"/>
      <point x="269" y="268"/>
      <point x="279" y="314"/>
      <point x="286" y="349" type="curve"/>
      <point x="290" y="349" type="line"/>
      <point x="295" y="320"/>
      <point x="305" y="277"/>
      <point x="318" y="234" type="curve" smooth="yes"/>
      <point x="358" y="101" type="line" smooth="yes"/>
      <point x="378" y="33"/>
      <point x="418" y="-10"/>
      <point x="505" y="-10" type="curve" smooth="yes"/>
      <point x="529" y="-10"/>
      <point x="580" y="-3"/>
      <point x="595" y="5" type="curve"/>
      <point x="595" y="120" type="line"/>
      <point x="582" y="117"/>
      <point x="571" y="115"/>
      <point x="562" y="115" type="curve" smooth="yes"/>
      <point x="530" y="115"/>
      <point x="508" y="129"/>
      <point x="480" y="213" type="curve" smooth="yes"/>
      <point x="355" y="591" type="line" smooth="yes"/>
      <point x="318" y="703"/>
      <point x="264" y="766"/>
      <point x="141" y="766" type="curve" smooth="yes"/>
      <point x="118" y="766"/>
      <point x="76" y="762"/>
      <point x="59" y="758" type="curve"/>
      <point x="59" y="635" type="line"/>
      <point x="75" y="638"/>
      <point x="96" y="641"/>
      <point x="114" y="641" type="curve" smooth="yes"/>
      <point x="157" y="641"/>
      <point x="189" y="631"/>
      <point x="209" y="561" type="curve" smooth="yes"/>
      <point x="222" y="516" type="line"/>
    </contour>
  </outline>
</glyph>
<glyph name="nu" format="2">
  <advance width="571"/>
  <unicode hex="03BD"/>
  <anchor x="285" y="0" name="bottom"/>
  <anchor x="285" y="546" name="top"/>
  <outline>
    <contour>
      <point x="1" y="546" type="line"/>
      <point x="196" y="0" type="line"/>
      <point x="334" y="0" type="line"/>
      <point x="488" y="168"/>
      <point x="536" y="330"/>
      <point x="536" y="546" type="curve"/>
      <point x="376" y="546" type="line"/>
      <point x="376" y="356"/>
      <point x="348" y="132"/>
      <point x="290" y="132" type="curve" smooth="yes"/>
      <point x="286" y="132" type="line"/>
      <point x="280" y="159"/>
      <point x="271" y="213"/>
      <point x="262" y="243" type="curve" smooth="yes"/>
      <point x="166" y="546" type="line"/>
    </contour>
  </outline>
</glyph>
<glyph name="xi" format="2">
  <advance width="476"/>
  <unicode hex="03BE"/>
  <anchor x="238" y="-185" name="bottom"/>
  <anchor x="256" y="760" name="top"/>
  <outline>
    <contour>
      <point x="41" y="214" type="curve" smooth="yes"/>
      <point x="41" y="94"/>
      <point x="107" y="28"/>
      <point x="233" y="4" type="curve" smooth="yes"/>
      <point x="305" y="-10"/>
      <point x="318" y="-24"/>
      <point x="318" y="-41" type="curve" smooth="yes"/>
      <point x="318" y="-74"/>
      <point x="290" y="-134"/>
      <point x="250" y="-185" type="curve"/>
      <point x="412" y="-185" type="line"/>
      <point x="446" y="-139"/>
      <point x="475" y="-76"/>
      <point x="475" y="-18" type="curve" smooth="yes"/>
      <point x="475" y="42"/>
      <point x="438" y="85"/>
      <point x="329" y="108" type="curve" smooth="yes"/>
      <point x="237" y="127"/>
      <point x="204" y="138"/>
      <point x="204" y="224" type="curve" smooth="yes"/>
      <point x="204" y="304"/>
      <point x="237" y="344"/>
      <point x="346" y="344" type="curve" smooth="yes"/>
      <point x="422" y="344" type="line"/>
      <point x="422" y="447" type="line"/>
      <point x="346" y="447" type="line" smooth="yes"/>
      <point x="256" y="447"/>
      <point x="229" y="477"/>
      <point x="229" y="533" type="curve" smooth="yes"/>
      <point x="229" y="616"/>
      <point x="308" y="657"/>
      <point x="396" y="657" type="curve" smooth="yes"/>
      <point x="451" y="657" type="line"/>
      <point x="451" y="760" type="line"/>
      <point x="62" y="760" type="line"/>
      <point x="62" y="651" type="line"/>
      <point x="80" y="651" type="line" smooth="yes"/>
      <point x="111" y="651"/>
      <point x="161" y="654"/>
      <point x="185" y="657" type="curve"/>
      <point x="106" y="630"/>
      <point x="70" y="595"/>
      <point x="70" y="524" type="curve" smooth="yes"/>
      <point x="70" y="457"/>
      <point x="105" y="416"/>
      <point x="170" y="400" type="curve"/>
      <point x="170" y="395" type="line"/>
      <point x="89" y="363"/>
      <point x="41" y="302"/>
    </contour>
  </outline>
</glyph>
<glyph name="pi" format="2">
  <advance width="721"/>
  <unicode hex="03C0"/>
  <anchor x="361" y="0" name="bottom"/>
  <anchor x="361" y="546" name="top"/>
  <outline>
    <contour>
      <point x="618" y="107" type="curve" smooth="yes"/>
      <point x="594" y="107"/>
      <point x="575" y="123"/>
      <point x="575" y="156" type="curve" smooth="yes"/>
      <point x="575" y="432" type="line"/>
      <point x="686" y="432" type="line"/>
      <point x="686" y="546" type="line"/>
      <point x="98" y="546" type="line"/>
      <point x="11" y="496" type="line"/>
      <point x="11" y="432" type="line"/>
      <point x="120" y="432" type="line"/>
      <point x="120" y="0" type="line"/>
      <point x="280" y="0" type="line"/>
      <point x="280" y="432" type="line"/>
      <point x="415" y="432" type="line"/>
      <point x="415" y="150" type="line" smooth="yes"/>
      <point x="415" y="38"/>
      <point x="465" y="-10"/>
      <point x="563" y="-10" type="curve" smooth="yes"/>
      <point x="610" y="-10"/>
      <point x="658" y="3"/>
      <point x="683" y="17" type="curve"/>
      <point x="683" y="124" type="line"/>
      <point x="664" y="114"/>
      <point x="639" y="107"/>
    </contour>
  </outline>
</glyph>
<glyph name="sigma1" format="2">
  <advance width="485"/>
  <unicode hex="03C2"/>
  <anchor x="243" y="-185" name="bottom"/>
  <anchor x="277" y="546" name="top"/>
  <outline>
    <contour>
      <point x="303" y="556" type="curve" smooth="yes"/>
      <point x="141" y="556"/>
      <point x="41" y="481"/>
      <point x="41" y="241" type="curve" smooth="yes"/>
      <point x="41" y="114"/>
      <point x="114" y="41"/>
      <point x="224" y="17" type="curve" smooth="yes"/>
      <point x="305" y="-1"/>
      <point x="318" y="-15"/>
      <point x="318" y="-33" type="curve" smooth="yes"/>
      <point x="318" y="-68"/>
      <point x="290" y="-131"/>
      <point x="250" y="-185" type="curve"/>
      <point x="412" y="-185" type="line"/>
      <point x="446" y="-137"/>
      <point x="475" y="-71"/>
      <point x="475" y="-11" type="curve" smooth="yes"/>
      <point x="475" y="51"/>
      <point x="441" y="96"/>
      <point x="332" y="120" type="curve" smooth="yes"/>
      <point x="239" y="140"/>
      <point x="204" y="155"/>
      <point x="204" y="245" type="curve" smooth="yes"/>
      <point x="204" y="372"/>
      <point x="233" y="436"/>
      <point x="301" y="436" type="curve" smooth="yes"/>
      <point x="336" y="436"/>
      <point x="383" y="423"/>
      <point x="430" y="404" type="curve"/>
      <point x="476" y="517" type="line"/>
      <point x="421" y="542"/>
      <point x="361" y="556"/>
    </contour>
  </outline>
</glyph>
<glyph name="sigma" format="2">
  <advance width="627"/>
  <unicode hex="03C3"/>
  <anchor x="314" y="0" name="bottom"/>
  <anchor x="314" y="546" name="top"/>
  <outline>
    <contour>
      <point x="559" y="232" type="curve" smooth="yes"/>
      <point x="559" y="323"/>
      <point x="526" y="387"/>
      <point x="476" y="438" type="curve"/>
      <point x="605" y="438" type="line"/>
      <point x="605" y="547" type="line"/>
      <point x="342" y="547" type="line" smooth="yes"/>
      <point x="141" y="547"/>
      <point x="41" y="467"/>
      <point x="41" y="266" type="curve" smooth="yes"/>
      <point x="41" y="85"/>
      <point x="144" y="-10"/>
      <point x="299" y="-10" type="curve" smooth="yes"/>
      <point x="468" y="-10"/>
      <point x="559" y="95"/>
    </contour>
    <contour>
      <point x="204" y="266" type="curve" smooth="yes"/>
      <point x="204" y="395"/>
      <point x="242" y="438"/>
      <point x="327" y="438" type="curve" smooth="yes"/>
      <point x="344" y="438" type="line"/>
      <point x="377" y="389"/>
      <point x="396" y="335"/>
      <point x="396" y="255" type="curve" smooth="yes"/>
      <point x="396" y="168"/>
      <point x="368" y="110"/>
      <point x="301" y="110" type="curve" smooth="yes"/>
      <point x="233" y="110"/>
      <point x="204" y="172"/>
    </contour>
  </outline>
</glyph>
<glyph name="tau" format="2">
  <advance width="502"/>
  <unicode hex="03C4"/>
  <anchor x="251" y="0" name="bottom"/>
  <anchor x="251" y="546" name="top"/>
  <outline>
    <contour>
      <point x="469" y="546" type="line"/>
      <point x="100" y="546" type="line"/>
      <point x="15" y="496" type="line"/>
      <point x="15" y="434" type="line"/>
      <point x="141" y="434" type="line"/>
      <point x="141" y="171" type="line" smooth="yes"/>
      <point x="141" y="30"/>
      <point x="212" y="-10"/>
      <point x="313" y="-10" type="curve" smooth="yes"/>
      <point x="366" y="-10"/>
      <point x="412" y="1"/>
      <point x="443" y="15" type="curve"/>
      <point x="443" y="126" type="line"/>
      <point x="413" y="116"/>
      <point x="385" y="109"/>
      <point x="355" y="109" type="curve" smooth="yes"/>
      <point x="322" y="109"/>
      <point x="301" y="129"/>
      <point x="301" y="171" type="curve" smooth="yes"/>
      <point x="301" y="434" type="line"/>
      <point x="469" y="434" type="line"/>
    </contour>
  </outline>
</glyph>
<glyph name="upsilon" format="2">
  <advance width="614"/>
  <unicode hex="03C5"/>
  <anchor x="308" y="0" name="bottom"/>
  <anchor x="305" y="546" name="top"/>
  <outline>
    <contour>
      <point x="306" y="-9" type="curve" smooth="yes"/>
      <point x="477" y="-9"/>
      <point x="567" y="86"/>
      <point x="567" y="296" type="curve" smooth="yes"/>
      <point x="567" y="389"/>
      <point x="556" y="459"/>
      <point x="534" y="546" type="curve"/>
      <point x="373" y="546" type="line"/>
      <point x="395" y="458"/>
      <point x="408" y="386"/>
      <point x="408" y="300" type="curve" smooth="yes"/>
      <point x="408" y="161"/>
      <point x="375" y="110"/>
      <point x="310" y="110" type="curve" smooth="yes"/>
      <point x="250" y="110"/>
      <point x="223" y="149"/>
      <point x="223" y="244" type="curve" smooth="yes"/>
      <point x="223" y="546" type="line"/>
      <point x="63" y="546" type="line"/>
      <point x="63" y="249" type="line" smooth="yes"/>
      <point x="63" y="104"/>
      <point x="116" y="-9"/>
    </contour>
  </outline>
</glyph>
<glyph name="psi" format="2">
  <advance width="813"/>
  <unicode hex="03C8"/>
  <anchor x="407" y="-240" name="bottom"/>
  <anchor x="407" y="759" name="top"/>
  <outline>
    <contour>
      <point x="485" y="759" type="line"/>
      <point x="336" y="759" type="line"/>
      <point x="336" y="105" type="line"/>
      <point x="253" y="113"/>
      <point x="217" y="154"/>
      <point x="217" y="267" type="curve" smooth="yes"/>
      <point x="217" y="546" type="line"/>
      <point x="63" y="546" type="line"/>
      <point x="63" y="271" type="line" smooth="yes"/>
      <point x="63" y="71"/>
      <point x="175" y="-3"/>
      <point x="336" y="-9" type="curve"/>
      <point x="336" y="-240" type="line"/>
      <point x="485" y="-240" type="line"/>
      <point x="485" y="-9" type="line"/>
      <point x="642" y="0"/>
      <point x="766" y="76"/>
      <point x="766" y="281" type="curve" smooth="yes"/>
      <point x="766" y="369"/>
      <point x="754" y="452"/>
      <point x="727" y="546" type="curve"/>
      <point x="575" y="546" type="line"/>
      <point x="600" y="453"/>
      <point x="614" y="370"/>
      <point x="614" y="282" type="curve" smooth="yes"/>
      <point x="614" y="157"/>
      <point x="572" y="116"/>
      <point x="485" y="106" type="curve"/>
    </contour>
  </outline>
</glyph>
<glyph name="uni03D2" format="2">
  <advance width="612"/>
  <unicode hex="03D2"/>
  <anchor x="306" y="714" name="top"/>
  <outline>
    <contour>
      <point x="302" y="416" type="curve"/>
      <point x="176" y="714" type="line"/>
      <point x="0" y="714" type="line"/>
      <point x="224" y="273" type="line"/>
      <point x="224" y="0" type="line"/>
      <point x="385" y="0" type="line"/>
      <point x="385" y="271" type="line"/>
      <point x="427" y="388"/>
      <point x="487" y="518"/>
      <point x="519" y="561" type="curve" smooth="yes"/>
      <point x="543" y="594"/>
      <point x="557" y="601"/>
      <point x="577" y="601" type="curve" smooth="yes"/>
      <point x="590" y="601"/>
      <point x="604" y="597"/>
      <point x="610" y="595" type="curve"/>
      <point x="610" y="707" type="line"/>
      <point x="586" y="716"/>
      <point x="557" y="720"/>
      <point x="532" y="720" type="curve" smooth="yes"/>
      <point x="472" y="720"/>
      <point x="438" y="700"/>
      <point x="408" y="650" type="curve" smooth="yes"/>
      <point x="373" y="592"/>
      <point x="340" y="506"/>
    </contour>
  </outline>
</glyph>
<glyph name="uni03DB" format="2">
  <advance width="484"/>
  <unicode hex="03DB"/>
  <anchor x="243" y="-206" name="bottom"/>
  <anchor x="243" y="546" name="top"/>
  <outline>
    <contour>
      <point x="251" y="-206" type="curve" smooth="yes"/>
      <point x="393" y="-206"/>
      <point x="475" y="-148"/>
      <point x="475" y="-38" type="curve" smooth="yes"/>
      <point x="475" y="44"/>
      <point x="441" y="91"/>
      <point x="332" y="121" type="curve" smooth="yes"/>
      <point x="235" y="147"/>
      <point x="204" y="155"/>
      <point x="204" y="245" type="curve" smooth="yes"/>
      <point x="204" y="372"/>
      <point x="236" y="436"/>
      <point x="308" y="436" type="curve" smooth="yes"/>
      <point x="346" y="436"/>
      <point x="394" y="427"/>
      <point x="442" y="404" type="curve"/>
      <point x="488" y="517" type="line"/>
      <point x="432" y="542"/>
      <point x="372" y="556"/>
      <point x="306" y="556" type="curve" smooth="yes"/>
      <point x="146" y="556"/>
      <point x="41" y="454"/>
      <point x="41" y="241" type="curve" smooth="yes"/>
      <point x="41" y="107"/>
      <point x="115" y="41"/>
      <point x="224" y="17" type="curve" smooth="yes"/>
      <point x="302" y="-1"/>
      <point x="318" y="-14"/>
      <point x="318" y="-42" type="curve" smooth="yes"/>
      <point x="318" y="-82"/>
      <point x="294" y="-97"/>
      <point x="237" y="-97" type="curve" smooth="yes"/>
      <point x="206" y="-97"/>
      <point x="173" y="-92"/>
      <point x="145" y="-81" type="curve"/>
      <point x="145" y="-193" type="line"/>
      <point x="170" y="-200"/>
      <point x="211" y="-206"/>
    </contour>
  </outline>
</glyph>
<glyph name="uni03DC" format="2">
  <advance width="542"/>
  <unicode hex="03DC"/>
  <anchor x="272" y="0" name="bottom"/>
  <anchor x="272" y="714" name="top"/>
  <outline>
    <contour>
      <point x="79" y="0" type="line"/>
      <point x="238" y="0" type="line"/>
      <point x="238" y="282" type="line"/>
      <point x="335" y="282" type="line"/>
      <point x="335" y="165" type="line"/>
      <point x="458" y="165" type="line"/>
      <point x="458" y="406" type="line"/>
      <point x="238" y="406" type="line"/>
      <point x="238" y="590" type="line"/>
      <point x="471" y="590" type="line"/>
      <point x="471" y="714" type="line"/>
      <point x="79" y="714" type="line"/>
    </contour>
  </outline>
</glyph>
<glyph name="uni03F1" format="2">
  <advance width="591"/>
  <unicode hex="03F1"/>
  <anchor x="296" y="-240" name="bottom"/>
  <anchor x="296" y="546" name="top"/>
  <outline>
    <contour>
      <point x="307" y="556" type="curve" smooth="yes"/>
      <point x="149" y="556"/>
      <point x="43" y="458"/>
      <point x="43" y="160" type="curve" smooth="yes"/>
      <point x="43" y="-110"/>
      <point x="124" y="-183"/>
      <point x="270" y="-196" type="curve" smooth="yes"/>
      <point x="317" y="-200"/>
      <point x="332" y="-199"/>
      <point x="332" y="-218" type="curve" smooth="yes"/>
      <point x="332" y="-227"/>
      <point x="329" y="-234"/>
      <point x="326" y="-240" type="curve"/>
      <point x="469" y="-240" type="line"/>
      <point x="474" y="-226"/>
      <point x="480" y="-207"/>
      <point x="480" y="-183" type="curve" smooth="yes"/>
      <point x="480" y="-93"/>
      <point x="422" y="-87"/>
      <point x="322" y="-77" type="curve" smooth="yes"/>
      <point x="225" y="-67"/>
      <point x="210" y="-34"/>
      <point x="204" y="29" type="curve"/>
      <point x="211" y="29" type="line"/>
      <point x="235" y="7"/>
      <point x="279" y="-10"/>
      <point x="332" y="-10" type="curve" smooth="yes"/>
      <point x="468" y="-10"/>
      <point x="550" y="92"/>
      <point x="550" y="273" type="curve" smooth="yes"/>
      <point x="550" y="453"/>
      <point x="456" y="556"/>
    </contour>
    <contour>
      <point x="303" y="436" type="curve" smooth="yes"/>
      <point x="361" y="436"/>
      <point x="388" y="389"/>
      <point x="388" y="273" type="curve" smooth="yes"/>
      <point x="388" y="157"/>
      <point x="359" y="110"/>
      <point x="293" y="110" type="curve" smooth="yes"/>
      <point x="261" y="110"/>
      <point x="217" y="129"/>
      <point x="199" y="157" type="curve"/>
      <point x="199" y="165"/>
      <point x="199" y="172"/>
      <point x="199" y="180" type="curve" smooth="yes"/>
      <point x="199" y="378"/>
      <point x="239" y="436"/>
    </contour>
  </outline>
</glyph>
<glyph name="afii10040" format="2">
  <advance width="758"/>
  <unicode hex="0426"/>
  <anchor x="380" y="-208" name="bottom"/>
  <anchor x="380" y="714" name="top"/>
  <outline>
    <contour>
      <point x="740" y="120" type="line"/>
      <point x="620" y="120" type="line"/>
      <point x="620" y="714" type="line"/>
      <point x="458" y="714" type="line"/>
      <point x="458" y="126" type="line"/>
      <point x="241" y="126" type="line"/>
      <point x="241" y="714" type="line"/>
      <point x="79" y="714" type="line"/>
      <point x="79" y="0" type="line"/>
      <point x="583" y="0" type="line"/>
      <point x="583" y="-208" type="line"/>
      <point x="740" y="-208" type="line"/>
    </contour>
  </outline>
</glyph>
<glyph name="afii10079" format="2">
  <advance width="624"/>
  <unicode hex="043D"/>
  <anchor x="312" y="0" name="bottom"/>
  <anchor x="312" y="546" name="top"/>
  <outline>
    <contour>
      <point x="228" y="546" type="line"/>
      <point x="68" y="546" type="line"/>
      <point x="68" y="0" type="line"/>
      <point x="228" y="0" type="line"/>
      <point x="228" y="225" type="line"/>
      <point x="397" y="225" type="line"/>
      <point x="397" y="0" type="line"/>
      <point x="556" y="0" type="line"/>
      <point x="556" y="546" type="line"/>
      <point x="397" y="546" type="line"/>
      <point x="397" y="336" type="line"/>
      <point x="228" y="336" type="line"/>
    </contour>
  </outline>
</glyph>
<glyph name="afii10193" format="2">
  <advance width="640"/>
  <unicode hex="045F"/>
  <anchor x="320" y="-196" name="bottom"/>
  <anchor x="320" y="546" name="top"/>
  <outline>
    <contour>
      <point x="249" y="0" type="line"/>
      <point x="249" y="-196" type="line"/>
      <point x="391" y="-196" type="line"/>
      <point x="391" y="0" type="line"/>
      <point x="572" y="0" type="line"/>
      <point x="572" y="546" type="line"/>
      <point x="413" y="546" type="line"/>
      <point x="413" y="112" type="line"/>
      <point x="228" y="112" type="line"/>
      <point x="228" y="546" type="line"/>
      <point x="68" y="546" type="line"/>
      <point x="68" y="0" type="line"/>
    </contour>
  </outline>
</glyph>
<glyph name="uni0488" format="2">
  <advance width="928"/>
  <unicode hex="0488"/>
  <outline>
    <contour>
      <point x="625" y="462" type="curve"/>
      <point x="670" y="462" type="line"/>
      <point x="673" y="501"/>
      <point x="699" y="505"/>
      <point x="729" y="505" type="curve" smooth="yes"/>
      <point x="758" y="505"/>
      <point x="785" y="499"/>
      <point x="788" y="462" type="curve"/>
      <point x="832" y="462" type="line"/>
      <point x="829" y="518"/>
      <point x="791" y="557"/>
      <point x="729" y="557" type="curve" smooth="yes"/>
      <point x="667" y="557"/>
      <point x="628" y="520"/>
    </contour>
    <contour>
      <point x="93" y="-20" type="curve"/>
      <point x="137" y="-20" type="line"/>
      <point x="140" y="19"/>
      <point x="166" y="23"/>
      <point x="196" y="23" type="curve" smooth="yes"/>
      <point x="226" y="23"/>
      <point x="253" y="17"/>
      <point x="255" y="-20" type="curve"/>
      <point x="300" y="-20" type="line"/>
      <point x="297" y="36"/>
      <point x="259" y="75"/>
      <point x="196" y="75" type="curve" smooth="yes"/>
      <point x="134" y="75"/>
      <point x="96" y="38"/>
    </contour>
    <contour>
      <point x="356" y="-156" type="curve"/>
      <point x="401" y="-156" type="line"/>
      <point x="404" y="-117"/>
      <point x="430" y="-113"/>
      <point x="460" y="-113" type="curve" smooth="yes"/>
      <point x="489" y="-113"/>
      <point x="516" y="-119"/>
      <point x="519" y="-156" type="curve"/>
      <point x="564" y="-156" type="line"/>
      <point x="560" y="-100"/>
      <point x="522" y="-61"/>
      <point x="460" y="-61" type="curve" smooth="yes"/>
      <point x="398" y="-61"/>
      <point x="359" y="-98"/>
    </contour>
    <contour>
      <point x="18" y="224" type="curve"/>
      <point x="63" y="224" type="line"/>
      <point x="65" y="263"/>
      <point x="92" y="267"/>
      <point x="121" y="267" type="curve" smooth="yes"/>
      <point x="151" y="267"/>
      <point x="178" y="261"/>
      <point x="181" y="224" type="curve"/>
      <point x="225" y="224" type="line"/>
      <point x="222" y="280"/>
      <point x="184" y="319"/>
      <point x="121" y="319" type="curve" smooth="yes"/>
      <point x="59" y="319"/>
      <point x="21" y="282"/>
    </contour>
    <contour>
      <point x="93" y="462" type="curve"/>
      <point x="137" y="462" type="line"/>
      <point x="140" y="501"/>
      <point x="166" y="505"/>
      <point x="196" y="505" type="curve" smooth="yes"/>
      <point x="226" y="505"/>
      <point x="253" y="499"/>
      <point x="255" y="462" type="curve"/>
      <point x="300" y="462" type="line"/>
      <point x="297" y="518"/>
      <point x="259" y="557"/>
      <point x="196" y="557" type="curve" smooth="yes"/>
      <point x="134" y="557"/>
      <point x="96" y="520"/>
    </contour>
    <contour>
      <point x="625" y="-20" type="curve"/>
      <point x="670" y="-20" type="line"/>
      <point x="673" y="19"/>
      <point x="699" y="23"/>
      <point x="729" y="23" type="curve" smooth="yes"/>
      <point x="758" y="23"/>
      <point x="785" y="17"/>
      <point x="788" y="-20" type="curve"/>
      <point x="832" y="-20" type="line"/>
      <point x="829" y="36"/>
      <point x="791" y="75"/>
      <point x="729" y="75" type="curve" smooth="yes"/>
      <point x="667" y="75"/>
      <point x="628" y="38"/>
    </contour>
    <contour>
      <point x="703" y="224" type="curve"/>
      <point x="747" y="224" type="line"/>
      <point x="750" y="263"/>
      <point x="777" y="267"/>
      <point x="806" y="267" type="curve" smooth="yes"/>
      <point x="836" y="267"/>
      <point x="863" y="261"/>
      <point x="865" y="224" type="curve"/>
      <point x="910" y="224" type="line"/>
      <point x="907" y="280"/>
      <point x="869" y="319"/>
      <point x="806" y="319" type="curve" smooth="yes"/>
      <point x="744" y="319"/>
      <point x="706" y="282"/>
    </contour>
    <contour>
      <point x="356" y="601" type="curve"/>
      <point x="401" y="601" type="line"/>
      <point x="404" y="640"/>
      <point x="430" y="644"/>
      <point x="460" y="644" type="curve" smooth="yes"/>
      <point x="489" y="644"/>
      <point x="516" y="638"/>
      <point x="519" y="601" type="curve"/>
      <point x="564" y="601" type="line"/>
      <point x="560" y="657"/>
      <point x="522" y="696"/>
      <point x="460" y="696" type="curve" smooth="yes"/>
      <point x="398" y="696"/>
      <point x="359" y="659"/>
    </contour>
  </outline>
</glyph>
<glyph name="uni0489" format="2">
  <advance width="897"/>
  <unicode hex="0489"/>
  <outline>
    <contour>
      <point x="751" y="579" type="line"/>
      <point x="701" y="559"/>
      <point x="644" y="531"/>
      <point x="602" y="505" type="curve"/>
      <point x="601" y="497" type="line"/>
      <point x="659" y="449" type="line"/>
      <point x="696" y="478"/>
      <point x="750" y="516"/>
      <point x="795" y="546" type="curve"/>
    </contour>
    <contour>
      <point x="238" y="70" type="line"/>
      <point x="202" y="41"/>
      <point x="147" y="3"/>
      <point x="102" y="-27" type="curve"/>
      <point x="147" y="-60" type="line"/>
      <point x="196" y="-40"/>
      <point x="253" y="-12"/>
      <point x="295" y="14" type="curve"/>
      <point x="297" y="22" type="line"/>
    </contour>
    <contour>
      <point x="18" y="323" type="curve"/>
      <point x="18" y="276" type="line"/>
      <point x="66" y="253"/>
      <point x="125" y="229"/>
      <point x="172" y="216" type="curve"/>
      <point x="179" y="221" type="line"/>
      <point x="179" y="289" type="line"/>
      <point x="134" y="296"/>
      <point x="70" y="310"/>
    </contour>
    <contour>
      <point x="504" y="-17" type="line"/>
      <point x="421" y="-17" type="line"/>
      <point x="415" y="-65"/>
      <point x="402" y="-133"/>
      <point x="389" y="-188" type="curve"/>
      <point x="452" y="-188" type="line"/>
      <point x="474" y="-137"/>
      <point x="496" y="-74"/>
      <point x="509" y="-24" type="curve"/>
    </contour>
    <contour>
      <point x="678" y="90" type="line"/>
      <point x="620" y="42" type="line"/>
      <point x="647" y="3"/>
      <point x="683" y="-55"/>
      <point x="711" y="-103" type="curve"/>
      <point x="755" y="-69" type="line"/>
      <point x="736" y="-17"/>
      <point x="710" y="44"/>
      <point x="686" y="89" type="curve"/>
    </contour>
    <contour>
      <point x="186" y="621" type="curve"/>
      <point x="141" y="587" type="line"/>
      <point x="160" y="535"/>
      <point x="186" y="474"/>
      <point x="211" y="429" type="curve"/>
      <point x="218" y="428" type="line"/>
      <point x="277" y="476" type="line"/>
      <point x="250" y="515"/>
      <point x="213" y="573"/>
    </contour>
    <contour>
      <point x="725" y="323" type="curve"/>
      <point x="718" y="318" type="line"/>
      <point x="718" y="250" type="line"/>
      <point x="763" y="243"/>
      <point x="827" y="229"/>
      <point x="879" y="216" type="curve"/>
      <point x="879" y="263" type="line"/>
      <point x="831" y="286"/>
      <point x="772" y="310"/>
    </contour>
    <contour>
      <point x="509" y="728" type="curve"/>
      <point x="446" y="728" type="line"/>
      <point x="424" y="677"/>
      <point x="402" y="614"/>
      <point x="389" y="564" type="curve"/>
      <point x="394" y="557" type="line"/>
      <point x="477" y="557" type="line"/>
      <point x="483" y="605"/>
      <point x="496" y="673"/>
    </contour>
  </outline>
</glyph>
<glyph name="uni04F7" format="2">
  <advance width="460"/>
  <unicode hex="04F7"/>
  <anchor x="231" y="-196" name="bottom"/>
  <anchor x="231" y="546" name="top"/>
  <outline>
    <contour>
      <point x="438" y="546" type="line"/>
      <point x="68" y="546" type="line"/>
      <point x="68" y="0" type="line"/>
      <point x="208" y="0" type="line"/>
      <point x="208" y="-196" type="line"/>
      <point x="349" y="-196" type="line"/>
      <point x="349" y="109" type="line"/>
      <point x="228" y="109" type="line"/>
      <point x="228" y="434" type="line"/>
      <point x="438" y="434" type="line"/>
    </contour>
  </outline>
</glyph>
<glyph name="uni051E" format="2">
  <advance width="672"/>
  <unicode hex="051E"/>
  <anchor x="336" y="0" name="bottom"/>
  <anchor x="336" y="714" name="top"/>
  <outline>
    <contour>
      <point x="286" y="657" type="line"/>
      <point x="572" y="358" type="line"/>
      <point x="645" y="425" type="line"/>
      <point x="358" y="724" type="line"/>
    </contour>
    <component base="afii10028"/>
  </outline>
</glyph>
<glyph name="uni052A" format="2">
  <advance width="1472"/>
  <unicode hex="052A"/>
  <anchor x="744" y="-208" name="bottom"/>
  <anchor x="744" y="714" name="top"/>
  <outline>
    <contour>
      <point x="612" y="426" type="line"/>
      <point x="612" y="312" type="line"/>
      <point x="954" y="312" type="line"/>
      <point x="954" y="426" type="line"/>
    </contour>
    <component base="afii10021"/>
    <component base="afii10028" xOffset="827"/>
  </outline>
</glyph>
<glyph name="uni052B" format="2">
  <advance width="1306"/>
  <unicode hex="052B"/>
  <anchor x="653" y="-196" name="bottom"/>
  <anchor x="653" y="546" name="top"/>
  <outline>
    <contour>
      <point x="532" y="334" type="line"/>
      <point x="532" y="231" type="line"/>
      <point x="814" y="231" type="line"/>
      <point x="814" y="334" type="line"/>
    </contour>
    <component base="afii10069"/>
    <component base="afii10076" xOffset="695"/>
  </outline>
</glyph>
<glyph name="uni1ABA" format="2">
  <unicode hex="1ABA"/>
  <anchor x="-7" y="90" name="_bottom"/>
  <anchor x="-5" y="-241" name="bottom"/>
  <outline>
    <contour>
      <point x="11" y="40" type="line"/>
      <point x="-74" y="-196" type="line"/>
      <point x="0" y="-222" type="line"/>
      <point x="98" y="40" type="line"/>
    </contour>
    <contour>
      <point x="-112" y="-176" type="curve"/>
      <point x="-112" y="-220"/>
      <point x="-80" y="-241"/>
      <point x="-39" y="-241" type="curve" smooth="yes"/>
      <point x="0" y="-241"/>
      <point x="35" y="-220"/>
      <point x="35" y="-176" type="curve" smooth="yes"/>
      <point x="35" y="-130"/>
      <point x="1" y="-110"/>
      <point x="-40" y="-110" type="curve" smooth="yes"/>
      <point x="-78" y="-110"/>
      <point x="-112" y="-130"/>
    </contour>
  </outline>
</glyph>
<glyph name="uni1D00" format="2">
  <advance width="530"/>
  <unicode hex="1D00"/>
  <anchor x="265" y="0" name="bottom"/>
  <anchor x="265" y="546" name="top"/>
  <outline>
    <contour>
      <point x="5" y="0" type="line"/>
      <point x="142" y="0" type="line"/>
      <point x="175" y="131" type="line"/>
      <point x="355" y="131" type="line"/>
      <point x="388" y="0" type="line"/>
      <point x="525" y="0" type="line"/>
      <point x="345" y="546" type="line"/>
      <point x="183" y="546" type="line"/>
    </contour>
    <contour>
      <point x="203" y="226" type="line"/>
      <point x="237" y="344" type="line" smooth="yes"/>
      <point x="250" y="388"/>
      <point x="258" y="423"/>
      <point x="265" y="463" type="curve"/>
      <point x="272" y="423"/>
      <point x="279" y="391"/>
      <point x="293" y="344" type="curve" smooth="yes"/>
      <point x="328" y="226" type="line"/>
    </contour>
  </outline>
</glyph>
<glyph name="uni1D04" format="2">
  <advance width="482"/>
  <unicode hex="1D04"/>
  <anchor x="242" y="0" name="bottom"/>
  <anchor x="242" y="546" name="top"/>
  <outline>
    <contour>
      <point x="296" y="461" type="curve" smooth="yes"/>
      <point x="337" y="461"/>
      <point x="376" y="445"/>
      <point x="415" y="426" type="curve"/>
      <point x="455" y="518" type="line"/>
      <point x="404" y="541"/>
      <point x="348" y="556"/>
      <point x="297" y="556" type="curve" smooth="yes"/>
      <point x="136" y="556"/>
      <point x="47" y="440"/>
      <point x="47" y="273" type="curve" smooth="yes"/>
      <point x="47" y="105"/>
      <point x="121" y="-8"/>
      <point x="287" y="-8" type="curve" smooth="yes"/>
      <point x="343" y="-8"/>
      <point x="387" y="1"/>
      <point x="434" y="20" type="curve"/>
      <point x="434" y="116" type="line"/>
      <point x="386" y="98"/>
      <point x="345" y="87"/>
      <point x="300" y="87" type="curve" smooth="yes"/>
      <point x="216" y="87"/>
      <point x="177" y="154"/>
      <point x="177" y="273" type="curve" smooth="yes"/>
      <point x="177" y="389"/>
      <point x="220" y="461"/>
    </contour>
  </outline>
</glyph>
<glyph name="uni1D07" format="2">
  <advance width="421"/>
  <unicode hex="1D07"/>
  <anchor x="210" y="0" name="bottom"/>
  <anchor x="210" y="546" name="top"/>
  <outline>
    <contour>
      <point x="376" y="0" type="line"/>
      <point x="376" y="94" type="line"/>
      <point x="195" y="94" type="line"/>
      <point x="195" y="238" type="line"/>
      <point x="363" y="238" type="line"/>
      <point x="363" y="331" type="line"/>
      <point x="195" y="331" type="line"/>
      <point x="195" y="453" type="line"/>
      <point x="376" y="453" type="line"/>
      <point x="376" y="546" type="line"/>
      <point x="69" y="546" type="line"/>
      <point x="69" y="0" type="line"/>
    </contour>
  </outline>
</glyph>
<glyph name="uni1D0A" format="2">
  <advance width="264"/>
  <unicode hex="1D0A"/>
  <anchor x="132" y="-158" name="bottom"/>
  <anchor x="132" y="546" name="top"/>
  <outline>
    <contour>
      <point x="21" y="-158" type="curve" smooth="yes"/>
      <point x="125" y="-158"/>
      <point x="197" y="-104"/>
      <point x="197" y="35" type="curve" smooth="yes"/>
      <point x="197" y="546" type="line"/>
      <point x="70" y="546" type="line"/>
      <point x="70" y="34" type="line" smooth="yes"/>
      <point x="70" y="-45"/>
      <point x="48" y="-62"/>
      <point x="4" y="-62" type="curve" smooth="yes"/>
      <point x="-16" y="-62"/>
      <point x="-33" y="-59"/>
      <point x="-49" y="-55" type="curve"/>
      <point x="-49" y="-149" type="line"/>
      <point x="-32" y="-154"/>
      <point x="-10" y="-158"/>
    </contour>
  </outline>
</glyph>
<glyph name="uni1D0B" format="2">
  <advance width="507"/>
  <unicode hex="1D0B"/>
  <anchor x="254" y="0" name="bottom"/>
  <anchor x="254" y="546" name="top"/>
  <outline>
    <contour>
      <point x="69" y="0" type="line"/>
      <point x="195" y="0" type="line"/>
      <point x="195" y="202" type="line"/>
      <point x="240" y="236" type="line"/>
      <point x="361" y="0" type="line"/>
      <point x="504" y="0" type="line"/>
      <point x="330" y="309" type="line"/>
      <point x="505" y="546" type="line"/>
      <point x="365" y="546" type="line"/>
      <point x="238" y="363" type="line" smooth="yes"/>
      <point x="224" y="342"/>
      <point x="209" y="322"/>
      <point x="195" y="301" type="curve"/>
      <point x="195" y="546" type="line"/>
      <point x="69" y="546" type="line"/>
    </contour>
  </outline>
</glyph>
<glyph name="uni1D0D" format="2">
  <advance width="716"/>
  <unicode hex="1D0D"/>
  <anchor x="358" y="0" name="bottom"/>
  <anchor x="358" y="546" name="top"/>
  <outline>
    <contour>
      <point x="69" y="0" type="line"/>
      <point x="181" y="0" type="line"/>
      <point x="181" y="260" type="line" smooth="yes"/>
      <point x="181" y="317"/>
      <point x="178" y="374"/>
      <point x="175" y="431" type="curve"/>
      <point x="178" y="431" type="line"/>
      <point x="295" y="0" type="line"/>
      <point x="412" y="0" type="line"/>
      <point x="533" y="430" type="line"/>
      <point x="536" y="430" type="line"/>
      <point x="533" y="375"/>
      <point x="531" y="320"/>
      <point x="531" y="265" type="curve" smooth="yes"/>
      <point x="531" y="0" type="line"/>
      <point x="647" y="0" type="line"/>
      <point x="647" y="546" type="line"/>
      <point x="478" y="546" type="line"/>
      <point x="358" y="126" type="line"/>
      <point x="356" y="126" type="line"/>
      <point x="239" y="546" type="line"/>
      <point x="69" y="546" type="line"/>
    </contour>
  </outline>
</glyph>
<glyph name="uni1D0F" format="2">
  <advance width="598"/>
  <unicode hex="1D0F"/>
  <anchor x="299" y="0" name="bottom"/>
  <anchor x="299" y="546" name="top"/>
  <outline>
    <contour>
      <point x="551" y="274" type="curve" smooth="yes"/>
      <point x="551" y="444"/>
      <point x="475" y="554"/>
      <point x="300" y="554" type="curve" smooth="yes"/>
      <point x="125" y="554"/>
      <point x="47" y="444"/>
      <point x="47" y="275" type="curve" smooth="yes"/>
      <point x="47" y="105"/>
      <point x="125" y="-8"/>
      <point x="299" y="-8" type="curve" smooth="yes"/>
      <point x="475" y="-8"/>
      <point x="551" y="105"/>
    </contour>
    <contour>
      <point x="180" y="274" type="curve" smooth="yes"/>
      <point x="180" y="390"/>
      <point x="214" y="460"/>
      <point x="300" y="460" type="curve" smooth="yes"/>
      <point x="385" y="460"/>
      <point x="419" y="390"/>
      <point x="419" y="274" type="curve" smooth="yes"/>
      <point x="419" y="158"/>
      <point x="385" y="88"/>
      <point x="299" y="88" type="curve" smooth="yes"/>
      <point x="215" y="88"/>
      <point x="180" y="158"/>
    </contour>
  </outline>
</glyph>
<glyph name="uni1D18" format="2">
  <advance width="478"/>
  <unicode hex="1D18"/>
  <anchor x="240" y="0" name="bottom"/>
  <anchor x="240" y="546" name="top"/>
  <outline>
    <contour>
      <point x="244" y="546" type="curve"/>
      <point x="69" y="546" type="line"/>
      <point x="69" y="0" type="line"/>
      <point x="195" y="0" type="line"/>
      <point x="195" y="196" type="line"/>
      <point x="239" y="196" type="line"/>
      <point x="390" y="196"/>
      <point x="440" y="281"/>
      <point x="440" y="377" type="curve"/>
      <point x="440" y="482"/>
      <point x="378" y="546"/>
    </contour>
    <contour>
      <point x="239" y="453" type="line"/>
      <point x="290" y="453"/>
      <point x="312" y="427"/>
      <point x="312" y="373" type="curve" smooth="yes"/>
      <point x="312" y="314"/>
      <point x="276" y="289"/>
      <point x="227" y="289" type="curve"/>
      <point x="195" y="289" type="line"/>
      <point x="195" y="453" type="line"/>
    </contour>
  </outline>
</glyph>
<glyph name="uni1D1B" format="2">
  <advance width="435"/>
  <unicode hex="1D1B"/>
  <anchor x="218" y="0" name="bottom"/>
  <anchor x="218" y="546" name="top"/>
  <outline>
    <contour>
      <point x="280" y="0" type="line"/>
      <point x="280" y="451" type="line"/>
      <point x="415" y="451" type="line"/>
      <point x="415" y="546" type="line"/>
      <point x="19" y="546" type="line"/>
      <point x="19" y="451" type="line"/>
      <point x="154" y="451" type="line"/>
      <point x="154" y="0" type="line"/>
    </contour>
  </outline>
</glyph>
<glyph name="uni1D1C" format="2">
  <advance width="584"/>
  <unicode hex="1D1C"/>
  <anchor x="292" y="0" name="bottom"/>
  <anchor x="292" y="546" name="top"/>
  <outline>
    <contour>
      <point x="522" y="546" type="line"/>
      <point x="381" y="546" type="line"/>
      <point x="381" y="244" type="line" smooth="yes"/>
      <point x="381" y="149"/>
      <point x="353" y="110"/>
      <point x="295" y="110" type="curve" smooth="yes"/>
      <point x="233" y="110"/>
      <point x="203" y="149"/>
      <point x="203" y="244" type="curve" smooth="yes"/>
      <point x="203" y="546" type="line"/>
      <point x="62" y="546" type="line"/>
      <point x="62" y="249" type="line" smooth="yes"/>
      <point x="62" y="104"/>
      <point x="126" y="-10"/>
      <point x="290" y="-10" type="curve" smooth="yes"/>
      <point x="456" y="-10"/>
      <point x="522" y="104"/>
      <point x="522" y="249" type="curve" smooth="yes"/>
    </contour>
  </outline>
</glyph>
<glyph name="uni1D21" format="2">
  <advance width="752"/>
  <unicode hex="1D21"/>
  <anchor x="377" y="0" name="bottom"/>
  <anchor x="377" y="546" name="top"/>
  <outline>
    <contour>
      <point x="142" y="0" type="line"/>
      <point x="296" y="0" type="line"/>
      <point x="338" y="188" type="line" smooth="yes"/>
      <point x="348" y="235"/>
      <point x="372" y="422"/>
      <point x="375" y="442" type="curve"/>
      <point x="378" y="442" type="line"/>
      <point x="381" y="422"/>
      <point x="405" y="235"/>
      <point x="415" y="190" type="curve" smooth="yes"/>
      <point x="456" y="0" type="line"/>
      <point x="610" y="0" type="line"/>
      <point x="743" y="546" type="line"/>
      <point x="611" y="546" type="line"/>
      <point x="556" y="305" type="line" smooth="yes"/>
      <point x="544" y="254"/>
      <point x="532" y="158"/>
      <point x="528" y="125" type="curve"/>
      <point x="525" y="125" type="line"/>
      <point x="521" y="162"/>
      <point x="502" y="256"/>
      <point x="496" y="285" type="curve" smooth="yes"/>
      <point x="445" y="546" type="line"/>
      <point x="309" y="546" type="line"/>
      <point x="254" y="283" type="line" smooth="yes"/>
      <point x="250" y="263"/>
      <point x="232" y="163"/>
      <point x="228" y="125" type="curve"/>
      <point x="224" y="125" type="line"/>
      <point x="219" y="163"/>
      <point x="208" y="254"/>
      <point x="197" y="304" type="curve" smooth="yes"/>
      <point x="143" y="546" type="line"/>
      <point x="10" y="546" type="line"/>
    </contour>
  </outline>
</glyph>
<glyph name="uni1D24" format="2">
  <advance width="470"/>
  <unicode hex="1D24"/>
  <anchor x="235" y="0" name="bottom"/>
  <anchor x="235" y="546" name="top"/>
  <outline>
    <contour>
      <point x="237" y="-10" type="curve" smooth="yes"/>
      <point x="306" y="-10"/>
      <point x="365" y="3"/>
      <point x="416" y="24" type="curve"/>
      <point x="416" y="119" type="line"/>
      <point x="359" y="98"/>
      <point x="302" y="85"/>
      <point x="251" y="85" type="curve" smooth="yes"/>
      <point x="205" y="85"/>
      <point x="181" y="102"/>
      <point x="181" y="135" type="curve" smooth="yes"/>
      <point x="181" y="172"/>
      <point x="214" y="193"/>
      <point x="291" y="202" type="curve"/>
      <point x="291" y="272" type="line"/>
      <point x="387" y="297"/>
      <point x="428" y="338"/>
      <point x="428" y="413" type="curve" smooth="yes"/>
      <point x="428" y="501"/>
      <point x="357" y="554"/>
      <point x="242" y="554" type="curve" smooth="yes"/>
      <point x="176" y="554"/>
      <point x="115" y="540"/>
      <point x="58" y="516" type="curve"/>
      <point x="96" y="427" type="line"/>
      <point x="144" y="448"/>
      <point x="187" y="459"/>
      <point x="227" y="459" type="curve" smooth="yes"/>
      <point x="269" y="459"/>
      <point x="288" y="440"/>
      <point x="288" y="414" type="curve" smooth="yes"/>
      <point x="288" y="378"/>
      <point x="259" y="361"/>
      <point x="193" y="349" type="curve"/>
      <point x="193" y="277" type="line"/>
      <point x="91" y="250"/>
      <point x="42" y="206"/>
      <point x="42" y="137" type="curve" smooth="yes"/>
      <point x="42" y="49"/>
      <point x="98" y="-10"/>
    </contour>
  </outline>
</glyph>
<glyph name="uni1D28" format="2">
  <advance width="560"/>
  <unicode hex="1D28"/>
  <outline>
    <contour>
      <point x="491" y="0" type="line"/>
      <point x="491" y="546" type="line"/>
      <point x="69" y="546" type="line"/>
      <point x="69" y="0" type="line"/>
      <point x="195" y="0" type="line"/>
      <point x="195" y="452" type="line"/>
      <point x="365" y="452" type="line"/>
      <point x="365" y="0" type="line"/>
    </contour>
  </outline>
</glyph>
<glyph name="uni1D7A" format="2">
  <advance width="1091"/>
  <unicode hex="1D7A"/>
  <anchor x="237" y="0" name="bottom_1"/>
  <anchor x="750" y="0" name="bottom_2"/>
  <anchor x="190" y="273" name="center_1"/>
  <anchor x="746" y="273" name="center_2"/>
  <anchor x="196" y="662" name="top_1"/>
  <anchor x="584" y="760" name="top_2"/>
  <anchor x="274" y="840" name="topright_1"/>
  <anchor x="982" y="760" name="topright_2"/>
  <outline>
    <contour>
      <point x="35" y="-75" type="line"/>
      <point x="142" y="-75" type="line"/>
      <point x="803" y="760" type="line"/>
      <point x="696" y="760" type="line"/>
    </contour>
    <component base="t"/>
    <component base="h" xOffset="434"/>
  </outline>
</glyph>
<glyph name="uni1D7B" format="2">
  <advance width="351"/>
  <unicode hex="1D7B"/>
  <anchor x="172" y="0" name="bottom"/>
  <anchor x="172" y="546" name="top"/>
  <outline>
    <contour>
      <point x="333" y="327" type="line"/>
      <point x="28" y="327" type="line"/>
      <point x="28" y="230" type="line"/>
      <point x="333" y="230" type="line"/>
    </contour>
    <component base="uni026A" xOffset="27"/>
  </outline>
</glyph>
<glyph name="uni1D7C" format="2">
  <advance width="395"/>
  <unicode hex="1D7C"/>
  <anchor x="218" y="0" name="bottom"/>
  <anchor x="154" y="546" name="top"/>
  <outline>
    <contour>
      <point x="325" y="327" type="line"/>
      <point x="0" y="327" type="line"/>
      <point x="0" y="230" type="line"/>
      <point x="325" y="230" type="line"/>
    </contour>
    <component base="iota"/>
  </outline>
</glyph>
<glyph name="uni1D7D" format="2">
  <advance width="633"/>
  <unicode hex="1D7D"/>
  <anchor x="149" y="-240" name="bottom"/>
  <anchor x="315" y="546" name="top"/>
  <anchor x="581" y="546" name="topright"/>
  <outline>
    <contour>
      <point x="633" y="327" type="line"/>
      <point x="0" y="327" type="line"/>
      <point x="0" y="230" type="line"/>
      <point x="633" y="230" type="line"/>
    </contour>
    <component base="p"/>
  </outline>
</glyph>
<glyph name="uni1D90" format="2">
  <advance width="619"/>
  <unicode hex="1D90"/>
  <anchor x="302" y="0" name="bottom"/>
  <anchor x="302" y="546" name="top"/>
  <outline>
    <contour>
      <point x="603" y="-230" type="curve" smooth="yes"/>
      <point x="634" y="-230"/>
      <point x="666" y="-225"/>
      <point x="689" y="-217" type="curve"/>
      <point x="689" y="-113" type="line"/>
      <point x="675" y="-118"/>
      <point x="660" y="-122"/>
      <point x="644" y="-122" type="curve" smooth="yes"/>
      <point x="613" y="-122"/>
      <point x="597" y="-107"/>
      <point x="597" y="-64" type="curve" smooth="yes"/>
      <point x="597" y="109" type="line"/>
      <point x="467" y="0" type="line"/>
      <point x="467" y="-74" type="line" smooth="yes"/>
      <point x="467" y="-184"/>
      <point x="520" y="-230"/>
    </contour>
    <component base="uni0251"/>
  </outline>
</glyph>
<glyph name="uni1FBD" format="2">
  <advance width="260"/>
  <unicode hex="1FBD"/>
  <anchor x="131" y="545" name="_top"/>
  <outline>
    <contour>
      <point x="59" y="637" type="curve"/>
      <point x="59" y="595" type="line"/>
      <point x="155" y="596"/>
      <point x="199" y="647"/>
      <point x="199" y="715" type="curve" smooth="yes"/>
      <point x="199" y="760"/>
      <point x="172" y="793"/>
      <point x="127" y="793" type="curve" smooth="yes"/>
      <point x="91" y="793"/>
      <point x="67" y="773"/>
      <point x="67" y="739" type="curve" smooth="yes"/>
      <point x="67" y="700"/>
      <point x="88" y="680"/>
      <point x="126" y="678" type="curve"/>
      <point x="126" y="657"/>
      <point x="99" y="639"/>
    </contour>
  </outline>
</glyph>
<glyph name="uni1FBE" format="2">
  <advance width="553"/>
  <unicode hex="1FBE"/>
  <outline>
    <contour>
      <point x="318" y="-102" type="curve" smooth="yes"/>
      <point x="318" y="-52" type="line"/>
      <point x="211" y="-52" type="line"/>
      <point x="211" y="-132" type="line" smooth="yes"/>
      <point x="211" y="-207"/>
      <point x="248" y="-240"/>
      <point x="312" y="-240" type="curve" smooth="yes"/>
      <point x="340" y="-240"/>
      <point x="366" y="-234"/>
      <point x="381" y="-227" type="curve"/>
      <point x="381" y="-145" type="line"/>
      <point x="373" y="-148"/>
      <point x="361" y="-151"/>
      <point x="350" y="-151" type="curve" smooth="yes"/>
      <point x="328" y="-151"/>
      <point x="318" y="-135"/>
    </contour>
  </outline>
</glyph>
<glyph name="uni1FC1" format="2">
  <advance width="545"/>
  <unicode hex="1FC1"/>
  <anchor x="271" y="546" name="_top"/>
  <outline>
    <contour>
      <point x="100" y="749" type="curve"/>
      <point x="164" y="749" type="line"/>
      <point x="172" y="779"/>
      <point x="184" y="792"/>
      <point x="202" y="792" type="curve" smooth="yes"/>
      <point x="242" y="792"/>
      <point x="291" y="749"/>
      <point x="344" y="749" type="curve" smooth="yes"/>
      <point x="402" y="749"/>
      <point x="439" y="799"/>
      <point x="446" y="864" type="curve"/>
      <point x="382" y="864" type="line"/>
      <point x="375" y="836"/>
      <point x="363" y="821"/>
      <point x="344" y="821" type="curve" smooth="yes"/>
      <point x="303" y="821"/>
      <point x="255" y="864"/>
      <point x="202" y="864" type="curve" smooth="yes"/>
      <point x="143" y="864"/>
      <point x="107" y="814"/>
    </contour>
    <contour>
      <point x="176" y="599" type="curve" smooth="yes"/>
      <point x="214" y="599"/>
      <point x="241" y="620"/>
      <point x="241" y="659" type="curve" smooth="yes"/>
      <point x="241" y="700"/>
      <point x="214" y="720"/>
      <point x="176" y="720" type="curve" smooth="yes"/>
      <point x="137" y="720"/>
      <point x="112" y="700"/>
      <point x="112" y="659" type="curve" smooth="yes"/>
      <point x="112" y="620"/>
      <point x="137" y="599"/>
    </contour>
    <contour>
      <point x="365" y="599" type="curve" smooth="yes"/>
      <point x="403" y="599"/>
      <point x="430" y="620"/>
      <point x="430" y="659" type="curve" smooth="yes"/>
      <point x="430" y="700"/>
      <point x="403" y="720"/>
      <point x="365" y="720" type="curve" smooth="yes"/>
      <point x="325" y="720"/>
      <point x="300" y="700"/>
      <point x="300" y="659" type="curve" smooth="yes"/>
      <point x="300" y="620"/>
      <point x="325" y="599"/>
    </contour>
  </outline>
</glyph>
<glyph name="uni1FCD" format="2">
  <advance width="542"/>
  <unicode hex="1FCD"/>
  <outline>
    <contour>
      <point x="357" y="606" type="curve"/>
      <point x="430" y="606" type="line"/>
      <point x="430" y="618" type="line"/>
      <point x="418" y="653"/>
      <point x="400" y="717"/>
      <point x="392" y="766" type="curve"/>
      <point x="262" y="766" type="line"/>
      <point x="262" y="756" type="line"/>
      <point x="281" y="713"/>
      <point x="322" y="648"/>
    </contour>
    <contour>
      <point x="122" y="638" type="curve"/>
      <point x="122" y="596" type="line"/>
      <point x="205" y="598"/>
      <point x="252" y="649"/>
      <point x="252" y="706" type="curve" smooth="yes"/>
      <point x="252" y="746"/>
      <point x="227" y="776"/>
      <point x="181" y="776" type="curve" smooth="yes"/>
      <point x="143" y="776"/>
      <point x="122" y="759"/>
      <point x="122" y="728" type="curve"/>
      <point x="122" y="698"/>
      <point x="152" y="680"/>
      <point x="169" y="679" type="curve"/>
      <point x="169" y="656"/>
      <point x="155" y="641"/>
    </contour>
  </outline>
</glyph>
<glyph name="uni1FCE" format="2">
  <advance width="542"/>
  <unicode hex="1FCE"/>
  <outline>
    <contour>
      <point x="277" y="618" type="curve"/>
      <point x="277" y="606" type="line"/>
      <point x="348" y="606" type="line"/>
      <point x="384" y="647"/>
      <point x="426" y="713"/>
      <point x="445" y="756" type="curve"/>
      <point x="445" y="766" type="line"/>
      <point x="315" y="766" type="line"/>
      <point x="307" y="717"/>
      <point x="289" y="653"/>
    </contour>
    <contour>
      <point x="138" y="638" type="curve"/>
      <point x="138" y="596" type="line"/>
      <point x="221" y="598"/>
      <point x="268" y="649"/>
      <point x="268" y="706" type="curve" smooth="yes"/>
      <point x="268" y="746"/>
      <point x="243" y="776"/>
      <point x="197" y="776" type="curve" smooth="yes"/>
      <point x="159" y="776"/>
      <point x="138" y="759"/>
      <point x="138" y="728" type="curve"/>
      <point x="138" y="698"/>
      <point x="168" y="680"/>
      <point x="185" y="679" type="curve"/>
      <point x="185" y="656"/>
      <point x="171" y="641"/>
    </contour>
  </outline>
</glyph>
<glyph name="uni1FCF" format="2">
  <advance width="560"/>
  <unicode hex="1FCF"/>
  <outline>
    <contour>
      <point x="109" y="745" type="curve"/>
      <point x="173" y="745" type="line"/>
      <point x="181" y="775"/>
      <point x="193" y="788"/>
      <point x="211" y="788" type="curve" smooth="yes"/>
      <point x="251" y="788"/>
      <point x="300" y="745"/>
      <point x="353" y="745" type="curve" smooth="yes"/>
      <point x="411" y="745"/>
      <point x="448" y="795"/>
      <point x="455" y="860" type="curve"/>
      <point x="391" y="860" type="line"/>
      <point x="384" y="832"/>
      <point x="372" y="817"/>
      <point x="353" y="817" type="curve" smooth="yes"/>
      <point x="312" y="817"/>
      <point x="264" y="860"/>
      <point x="211" y="860" type="curve" smooth="yes"/>
      <point x="152" y="860"/>
      <point x="116" y="810"/>
    </contour>
    <contour>
      <point x="219" y="621" type="curve"/>
      <point x="219" y="582" type="line"/>
      <point x="302" y="585"/>
      <point x="342" y="627"/>
      <point x="342" y="677" type="curve" smooth="yes"/>
      <point x="342" y="710"/>
      <point x="319" y="737"/>
      <point x="274" y="737" type="curve" smooth="yes"/>
      <point x="236" y="737"/>
      <point x="217" y="719"/>
      <point x="217" y="693" type="curve" smooth="yes"/>
      <point x="217" y="668"/>
      <point x="249" y="651"/>
      <point x="264" y="650" type="curve"/>
      <point x="264" y="633"/>
      <point x="250" y="623"/>
    </contour>
  </outline>
</glyph>
<glyph name="uni1FDD" format="2">
  <advance width="553"/>
  <unicode hex="1FDD"/>
  <outline>
    <contour>
      <point x="359" y="606" type="curve"/>
      <point x="432" y="606" type="line"/>
      <point x="432" y="618" type="line"/>
      <point x="420" y="653"/>
      <point x="402" y="717"/>
      <point x="394" y="766" type="curve"/>
      <point x="264" y="766" type="line"/>
      <point x="264" y="756" type="line"/>
      <point x="283" y="713"/>
      <point x="324" y="648"/>
    </contour>
    <contour>
      <point x="245" y="596" type="curve"/>
      <point x="245" y="638" type="line"/>
      <point x="213" y="641"/>
      <point x="199" y="656"/>
      <point x="199" y="679" type="curve"/>
      <point x="215" y="680"/>
      <point x="246" y="698"/>
      <point x="246" y="728" type="curve" smooth="yes"/>
      <point x="246" y="759"/>
      <point x="225" y="776"/>
      <point x="186" y="776" type="curve" smooth="yes"/>
      <point x="140" y="776"/>
      <point x="116" y="746"/>
      <point x="116" y="706" type="curve" smooth="yes"/>
      <point x="116" y="649"/>
      <point x="163" y="598"/>
    </contour>
  </outline>
</glyph>
<glyph name="uni1FDE" format="2">
  <advance width="553"/>
  <unicode hex="1FDE"/>
  <outline>
    <contour>
      <point x="274" y="618" type="curve"/>
      <point x="274" y="606" type="line"/>
      <point x="347" y="606" type="line"/>
      <point x="382" y="648"/>
      <point x="423" y="713"/>
      <point x="442" y="756" type="curve"/>
      <point x="442" y="766" type="line"/>
      <point x="312" y="766" type="line"/>
      <point x="304" y="717"/>
      <point x="286" y="653"/>
    </contour>
    <contour>
      <point x="250" y="596" type="curve"/>
      <point x="250" y="638" type="line"/>
      <point x="218" y="641"/>
      <point x="204" y="656"/>
      <point x="204" y="679" type="curve"/>
      <point x="220" y="680"/>
      <point x="251" y="698"/>
      <point x="251" y="728" type="curve" smooth="yes"/>
      <point x="251" y="759"/>
      <point x="230" y="776"/>
      <point x="191" y="776" type="curve" smooth="yes"/>
      <point x="145" y="776"/>
      <point x="121" y="746"/>
      <point x="121" y="706" type="curve" smooth="yes"/>
      <point x="121" y="649"/>
      <point x="168" y="598"/>
    </contour>
  </outline>
</glyph>
<glyph name="uni1FED" format="2">
  <advance width="554"/>
  <unicode hex="1FED"/>
  <anchor x="282" y="546" name="_top"/>
  <outline>
    <contour>
      <point x="349" y="618" type="line"/>
      <point x="349" y="630" type="line"/>
      <point x="340" y="665"/>
      <point x="326" y="729"/>
      <point x="321" y="778" type="curve"/>
      <point x="194" y="778" type="line"/>
      <point x="194" y="768" type="line"/>
      <point x="213" y="725"/>
      <point x="248" y="658"/>
      <point x="280" y="618" type="curve"/>
    </contour>
    <contour>
      <point x="72" y="676" type="curve"/>
      <point x="72" y="632"/>
      <point x="97" y="611"/>
      <point x="137" y="611" type="curve" smooth="yes"/>
      <point x="175" y="611"/>
      <point x="203" y="632"/>
      <point x="203" y="676" type="curve" smooth="yes"/>
      <point x="203" y="722"/>
      <point x="175" y="742"/>
      <point x="137" y="742" type="curve" smooth="yes"/>
      <point x="97" y="742"/>
      <point x="72" y="722"/>
    </contour>
    <contour>
      <point x="365" y="676" type="curve"/>
      <point x="365" y="632"/>
      <point x="390" y="611"/>
      <point x="431" y="611" type="curve" smooth="yes"/>
      <point x="470" y="611"/>
      <point x="497" y="632"/>
      <point x="497" y="676" type="curve" smooth="yes"/>
      <point x="497" y="722"/>
      <point x="470" y="742"/>
      <point x="431" y="742" type="curve" smooth="yes"/>
      <point x="390" y="742"/>
      <point x="365" y="722"/>
    </contour>
  </outline>
</glyph>
<glyph name="uni1FEE" format="2">
  <advance width="554"/>
  <unicode hex="1FEE"/>
  <outline>
    <contour>
      <point x="219" y="630" type="curve"/>
      <point x="219" y="618" type="line"/>
      <point x="288" y="618" type="line"/>
      <point x="320" y="658"/>
      <point x="355" y="725"/>
      <point x="374" y="768" type="curve"/>
      <point x="374" y="778" type="line"/>
      <point x="247" y="778" type="line"/>
      <point x="242" y="729"/>
      <point x="228" y="665"/>
    </contour>
    <contour>
      <point x="137" y="611" type="curve" smooth="yes"/>
      <point x="175" y="611"/>
      <point x="203" y="632"/>
      <point x="203" y="676" type="curve" smooth="yes"/>
      <point x="203" y="722"/>
      <point x="175" y="742"/>
      <point x="137" y="742" type="curve" smooth="yes"/>
      <point x="97" y="742"/>
      <point x="72" y="722"/>
      <point x="72" y="676" type="curve"/>
      <point x="72" y="632"/>
      <point x="97" y="611"/>
    </contour>
    <contour>
      <point x="431" y="611" type="curve" smooth="yes"/>
      <point x="470" y="611"/>
      <point x="497" y="632"/>
      <point x="497" y="676" type="curve" smooth="yes"/>
      <point x="497" y="722"/>
      <point x="470" y="742"/>
      <point x="431" y="742" type="curve" smooth="yes"/>
      <point x="390" y="742"/>
      <point x="365" y="722"/>
      <point x="365" y="676" type="curve"/>
      <point x="365" y="632"/>
      <point x="390" y="611"/>
    </contour>
  </outline>
</glyph>
<glyph name="uni1FEF" format="2">
  <advance width="553"/>
  <unicode hex="1FEF"/>
  <anchor x="288" y="546" name="_top"/>
  <anchor x="256" y="766" name="top"/>
  <outline>
    <contour>
      <point x="341" y="606" type="line"/>
      <point x="341" y="618" type="line"/>
      <point x="330" y="653"/>
      <point x="314" y="717"/>
      <point x="307" y="766" type="curve"/>
      <point x="167" y="766" type="line"/>
      <point x="167" y="756" type="line"/>
      <point x="189" y="713"/>
      <point x="226" y="647"/>
      <point x="260" y="606" type="curve"/>
    </contour>
  </outline>
</glyph>
<glyph name="uni1FFD" format="2">
  <advance width="553"/>
  <unicode hex="1FFD"/>
  <anchor x="286" y="546" name="_top"/>
  <outline>
    <contour>
      <point x="229" y="621" type="curve"/>
      <point x="229" y="606" type="line"/>
      <point x="322" y="606" type="line"/>
      <point x="358" y="669"/>
      <point x="386" y="732"/>
      <point x="409" y="784" type="curve"/>
      <point x="409" y="796" type="line"/>
      <point x="265" y="796" type="line"/>
      <point x="259" y="745"/>
      <point x="242" y="668"/>
    </contour>
  </outline>
</glyph>
<glyph name="uni1FFE" format="2">
  <advance width="259"/>
  <unicode hex="1FFE"/>
  <anchor x="132" y="545" name="_top"/>
  <anchor x="134" y="793" name="top"/>
  <outline>
    <contour>
      <point x="202" y="595" type="curve"/>
      <point x="202" y="637" type="line"/>
      <point x="162" y="639"/>
      <point x="135" y="657"/>
      <point x="135" y="678" type="curve"/>
      <point x="173" y="680"/>
      <point x="194" y="700"/>
      <point x="194" y="739" type="curve" smooth="yes"/>
      <point x="194" y="773"/>
      <point x="170" y="793"/>
      <point x="134" y="793" type="curve" smooth="yes"/>
      <point x="89" y="793"/>
      <point x="62" y="760"/>
      <point x="62" y="715" type="curve" smooth="yes"/>
      <point x="62" y="647"/>
      <point x="106" y="596"/>
    </contour>
  </outline>
</glyph>
<glyph name="uni2012" format="2">
  <advance width="543"/>
  <unicode hex="2012"/>
  <outline>
    <contour>
      <point x="38" y="292" type="line"/>
      <point x="505" y="292" type="line"/>
      <point x="505" y="404" type="line"/>
      <point x="38" y="404" type="line"/>
    </contour>
  </outline>
</glyph>
<glyph name="plussuperior" format="2">
  <advance width="351"/>
  <unicode hex="207A"/>
  <outline>
    <contour>
      <point x="137" y="304" type="line"/>
      <point x="213" y="304" type="line"/>
      <point x="213" y="414" type="line"/>
      <point x="318" y="414" type="line"/>
      <point x="318" y="482" type="line"/>
      <point x="213" y="482" type="line"/>
      <point x="213" y="593" type="line"/>
      <point x="137" y="593" type="line"/>
      <point x="137" y="482" type="line"/>
      <point x="33" y="482" type="line"/>
      <point x="33" y="414" type="line"/>
      <point x="137" y="414" type="line"/>
    </contour>
  </outline>
</glyph>
<glyph name="equalsuperior" format="2">
  <advance width="351"/>
  <unicode hex="207C"/>
  <outline>
    <contour>
      <point x="33" y="472" type="line"/>
      <point x="318" y="472" type="line"/>
      <point x="318" y="540" type="line"/>
      <point x="33" y="540" type="line"/>
    </contour>
    <contour>
      <point x="33" y="355" type="line"/>
      <point x="318" y="355" type="line"/>
      <point x="318" y="423" type="line"/>
      <point x="33" y="423" type="line"/>
    </contour>
  </outline>
</glyph>
<glyph name="parenleftsuperior" format="2">
  <advance width="232"/>
  <unicode hex="207D"/>
  <outline>
    <contour>
      <point x="34" y="498" type="curve" smooth="yes"/>
      <point x="34" y="391"/>
      <point x="58" y="291"/>
      <point x="118" y="221" type="curve"/>
      <point x="206" y="221" type="line"/>
      <point x="151" y="297"/>
      <point x="127" y="400"/>
      <point x="127" y="499" type="curve" smooth="yes"/>
      <point x="127" y="599"/>
      <point x="151" y="701"/>
      <point x="206" y="778" type="curve"/>
      <point x="118" y="778" type="line"/>
      <point x="58" y="704"/>
      <point x="34" y="605"/>
    </contour>
  </outline>
</glyph>
<glyph name="parenrightsuperior" format="2">
  <advance width="232"/>
  <unicode hex="207E"/>
  <outline>
    <contour>
      <point x="198" y="501" type="curve" smooth="yes"/>
      <point x="198" y="605"/>
      <point x="175" y="705"/>
      <point x="115" y="778" type="curve"/>
      <point x="27" y="778" type="line"/>
      <point x="81" y="702"/>
      <point x="106" y="600"/>
      <point x="106" y="501" type="curve" smooth="yes"/>
      <point x="106" y="401"/>
      <point x="82" y="298"/>
      <point x="26" y="221" type="curve"/>
      <point x="115" y="221" type="line"/>
      <point x="174" y="295"/>
      <point x="198" y="394"/>
    </contour>
  </outline>
</glyph>
<glyph name="uni20A5" format="2">
  <advance width="982"/>
  <unicode hex="20A5"/>
  <anchor x="469" y="0" name="bottom"/>
  <anchor x="480" y="546" name="top"/>
  <anchor x="892" y="546" name="topright"/>
  <outline>
    <contour>
      <point x="704" y="666" type="line"/>
      <point x="604" y="666" type="line"/>
      <point x="243" y="-110" type="line"/>
      <point x="343" y="-110" type="line"/>
    </contour>
    <component base="m"/>
  </outline>
</glyph>
<glyph name="uni20A9" format="2">
  <advance width="713"/>
  <unicode hex="20A9"/>
  <outline>
    <contour>
      <point x="127" y="0" type="line"/>
      <point x="276" y="0" type="line"/>
      <point x="316" y="247" type="line"/>
      <point x="395" y="247" type="line"/>
      <point x="435" y="0" type="line"/>
      <point x="582" y="0" type="line"/>
      <point x="621" y="247" type="line"/>
      <point x="704" y="247" type="line"/>
      <point x="704" y="321" type="line"/>
      <point x="632" y="321" type="line"/>
      <point x="643" y="393" type="line"/>
      <point x="704" y="393" type="line"/>
      <point x="704" y="467" type="line"/>
      <point x="655" y="467" type="line"/>
      <point x="693" y="714" type="line"/>
      <point x="573" y="714" type="line"/>
      <point x="541" y="467" type="line"/>
      <point x="459" y="467" type="line"/>
      <point x="422" y="714" type="line"/>
      <point x="290" y="714" type="line"/>
      <point x="251" y="467" type="line"/>
      <point x="170" y="467" type="line"/>
      <point x="139" y="714" type="line"/>
      <point x="18" y="714" type="line"/>
      <point x="56" y="467" type="line"/>
      <point x="9" y="467" type="line"/>
      <point x="9" y="393" type="line"/>
      <point x="67" y="393" type="line"/>
      <point x="78" y="321" type="line"/>
      <point x="9" y="321" type="line"/>
      <point x="9" y="247" type="line"/>
      <point x="89" y="247" type="line"/>
    </contour>
    <contour>
      <point x="207" y="147" type="line"/>
      <point x="197" y="247" type="line"/>
      <point x="218" y="247" type="line"/>
    </contour>
    <contour>
      <point x="503" y="147" type="line"/>
      <point x="492" y="247" type="line"/>
      <point x="513" y="247" type="line"/>
    </contour>
    <contour>
      <point x="345" y="467" type="line"/>
      <point x="355" y="559" type="line"/>
      <point x="364" y="467" type="line"/>
    </contour>
    <contour>
      <point x="188" y="321" type="line"/>
      <point x="180" y="393" type="line"/>
      <point x="239" y="393" type="line"/>
      <point x="228" y="321" type="line"/>
    </contour>
    <contour>
      <point x="328" y="321" type="line"/>
      <point x="338" y="393" type="line"/>
      <point x="371" y="393" type="line"/>
      <point x="381" y="321" type="line"/>
    </contour>
    <contour>
      <point x="482" y="321" type="line"/>
      <point x="471" y="393" type="line"/>
      <point x="531" y="393" type="line"/>
      <point x="522" y="321" type="line"/>
    </contour>
  </outline>
</glyph>
<glyph name="uni2C66" format="2">
  <advance width="434"/>
  <unicode hex="2C66"/>
  <anchor x="237" y="-208" name="bottom"/>
  <anchor x="196" y="760" name="top"/>
  <anchor x="190" y="273" name="center"/>
  <anchor x="384" y="662" name="topright"/>
  <outline>
    <contour>
      <point x="221" y="-208" type="line"/>
      <point x="436" y="760" type="line"/>
      <point x="359" y="760" type="line"/>
      <point x="144" y="-208" type="line"/>
    </contour>
    <component base="t"/>
  </outline>
</glyph>
<glyph name="uni2C68" format="2">
  <advance width="669"/>
  <unicode hex="2C68"/>
  <anchor x="316" y="-196" name="bottom"/>
  <anchor x="150" y="760" name="top"/>
  <anchor x="312" y="273" name="center"/>
  <anchor x="548" y="760" name="topright"/>
  <outline>
    <contour>
      <point x="557" y="109" type="line"/>
      <point x="458" y="0" type="line"/>
      <point x="524" y="0" type="line"/>
      <point x="524" y="-196" type="line"/>
      <point x="658" y="-196" type="line"/>
      <point x="658" y="109" type="line"/>
    </contour>
    <component base="h"/>
  </outline>
</glyph>
<glyph name="uni2C6A" format="2">
  <advance width="626"/>
  <unicode hex="2C6A"/>
  <anchor x="311" y="-196" name="bottom"/>
  <anchor x="152" y="760" name="top"/>
  <anchor x="600" y="760" name="topright"/>
  <outline>
    <contour>
      <point x="620" y="109" type="line"/>
      <point x="509" y="109" type="line"/>
      <point x="486" y="0" type="line"/>
      <point x="486" y="-196" type="line"/>
      <point x="620" y="-196" type="line"/>
    </contour>
    <component base="k"/>
  </outline>
</glyph>
<glyph name="uni2E4D" format="2">
  <advance width="536"/>
  <unicode hex="2E4D"/>
  <anchor x="281" y="0" name="bottom"/>
  <anchor x="326" y="714" name="top"/>
  <outline>
    <contour>
      <point x="186" y="334" type="line"/>
      <point x="503" y="651" type="line"/>
      <point x="454" y="699" type="line"/>
      <point x="137" y="382" type="line"/>
    </contour>
    <component base="afii10020"/>
  </outline>
</glyph>
<glyph name="uniA663" format="2">
  <advance width="778"/>
  <unicode hex="A663"/>
  <anchor x="320" y="-196" name="bottom"/>
  <anchor x="320" y="546" name="top"/>
  <outline>
    <contour>
      <point x="756" y="546" type="line"/>
      <point x="399" y="546" type="line"/>
      <point x="399" y="0" type="line"/>
      <point x="548" y="0" type="line"/>
      <point x="548" y="434" type="line"/>
      <point x="756" y="434" type="line"/>
    </contour>
    <component base="afii10069"/>
  </outline>
</glyph>
<glyph name="uniA664" format="2">
  <advance width="904"/>
  <unicode hex="A664"/>
  <anchor x="354" y="0" name="bottom"/>
  <anchor x="354" y="714" name="top"/>
  <outline>
    <contour>
      <point x="883" y="714" type="line"/>
      <point x="472" y="714" type="line"/>
      <point x="472" y="0" type="line"/>
      <point x="623" y="0" type="line"/>
      <point x="623" y="589" type="line"/>
      <point x="883" y="589" type="line"/>
    </contour>
    <component base="afii10029"/>
  </outline>
</glyph>
<glyph name="uniA665" format="2">
  <advance width="787"/>
  <unicode hex="A665"/>
  <anchor x="314" y="0" name="bottom"/>
  <anchor x="314" y="546" name="top"/>
  <outline>
    <contour>
      <point x="765" y="546" type="line"/>
      <point x="408" y="546" type="line"/>
      <point x="408" y="0" type="line"/>
      <point x="557" y="0" type="line"/>
      <point x="557" y="434" type="line"/>
      <point x="765" y="434" type="line"/>
    </contour>
    <component base="afii10077"/>
  </outline>
</glyph>
<glyph name="uniA666" format="2">
  <advance width="1133"/>
  <unicode hex="A666"/>
  <anchor x="445" y="0" name="bottom"/>
  <anchor x="451" y="714" name="top"/>
  <anchor x="879" y="714" name="topright"/>
  <outline>
    <contour>
      <point x="1112" y="714" type="line"/>
      <point x="661" y="714" type="line"/>
      <point x="812" y="589" type="line"/>
      <point x="1112" y="589" type="line"/>
    </contour>
    <component base="M"/>
  </outline>
</glyph>
<glyph name="uniA672" format="2">
  <unicode hex="A672"/>
  <outline>
    <contour>
      <point x="-629" y="419" type="line"/>
      <point x="-322" y="419" type="line"/>
      <point x="-322" y="491" type="line"/>
      <point x="-629" y="491" type="line"/>
    </contour>
    <contour>
      <point x="-629" y="49" type="line"/>
      <point x="-322" y="49" type="line"/>
      <point x="-322" y="121" type="line"/>
      <point x="-629" y="121" type="line"/>
    </contour>
    <contour>
      <point x="-629" y="234" type="line"/>
      <point x="-322" y="234" type="line"/>
      <point x="-322" y="306" type="line"/>
      <point x="-629" y="306" type="line"/>
    </contour>
    <contour>
      <point x="146" y="-57" type="line"/>
      <point x="146" y="-364" type="line"/>
      <point x="218" y="-364" type="line"/>
      <point x="218" y="-57" type="line"/>
    </contour>
    <contour>
      <point x="-223" y="-57" type="line"/>
      <point x="-223" y="-364" type="line"/>
      <point x="-151" y="-364" type="line"/>
      <point x="-151" y="-57" type="line"/>
    </contour>
    <contour>
      <point x="-39" y="-57" type="line"/>
      <point x="-39" y="-364" type="line"/>
      <point x="33" y="-364" type="line"/>
      <point x="33" y="-57" type="line"/>
    </contour>
    <contour>
      <point x="297" y="419" type="line"/>
      <point x="604" y="419" type="line"/>
      <point x="604" y="491" type="line"/>
      <point x="297" y="491" type="line"/>
    </contour>
    <contour>
      <point x="297" y="49" type="line"/>
      <point x="604" y="49" type="line"/>
      <point x="604" y="121" type="line"/>
      <point x="297" y="121" type="line"/>
    </contour>
    <contour>
      <point x="297" y="234" type="line"/>
      <point x="604" y="234" type="line"/>
      <point x="604" y="306" type="line"/>
      <point x="297" y="306" type="line"/>
    </contour>
    <contour>
      <point x="22" y="778" type="line"/>
      <point x="22" y="905" type="line"/>
      <point x="-52" y="905" type="line"/>
      <point x="-52" y="778" type="line"/>
      <point x="-168" y="778" type="line"/>
      <point x="-168" y="706" type="line"/>
      <point x="-52" y="706" type="line"/>
      <point x="-52" y="581" type="line"/>
      <point x="22" y="581" type="line"/>
      <point x="22" y="706" type="line"/>
      <point x="139" y="706" type="line"/>
      <point x="139" y="778" type="line"/>
    </contour>
  </outline>
</glyph>
<glyph name="uniA680" format="2">
  <advance width="764"/>
  <unicode hex="A680"/>
  <anchor x="371" y="-208" name="bottom"/>
  <anchor x="371" y="714" name="top"/>
  <outline>
    <contour>
      <point x="214" y="920" type="line"/>
      <point x="214" y="588" type="line"/>
      <point x="347" y="588" type="line"/>
      <point x="347" y="920" type="line"/>
    </contour>
    <component base="afii10021"/>
  </outline>
</glyph>
<glyph name="uniA681" format="2">
  <advance width="640"/>
  <unicode hex="A681"/>
  <anchor x="320" y="-196" name="bottom"/>
  <anchor x="320" y="546" name="top"/>
  <outline>
    <contour>
      <point x="167" y="739" type="line"/>
      <point x="167" y="434" type="line"/>
      <point x="301" y="434" type="line"/>
      <point x="301" y="739" type="line"/>
    </contour>
    <component base="afii10069"/>
  </outline>
</glyph>
<glyph name="uniA684" format="2">
  <advance width="1293"/>
  <unicode hex="A684"/>
  <anchor x="289" y="0" name="bottom_1"/>
  <anchor x="980" y="0" name="bottom_2"/>
  <anchor x="308" y="714" name="top_1"/>
  <anchor x="993" y="714" name="top_2"/>
  <outline>
    <contour>
      <point x="160" y="429" type="line"/>
      <point x="160" y="313" type="line"/>
      <point x="828" y="313" type="line"/>
      <point x="828" y="429" type="line"/>
    </contour>
    <component base="afii10025"/>
    <component base="afii10028" xOffset="648"/>
  </outline>
</glyph>
<glyph name="uniA685" format="2">
  <advance width="1166"/>
  <unicode hex="A685"/>
  <anchor x="228" y="0" name="bottom_1"/>
  <anchor x="860" y="0" name="bottom_2"/>
  <anchor x="242" y="546" name="top_1"/>
  <anchor x="877" y="546" name="top_2"/>
  <outline>
    <contour>
      <point x="161" y="336" type="line"/>
      <point x="161" y="234" type="line"/>
      <point x="712" y="234" type="line"/>
      <point x="712" y="336" type="line"/>
    </contour>
    <component base="afii10073"/>
    <component base="afii10076" xOffset="555"/>
  </outline>
</glyph>
<glyph name="uniA69A" format="2">
  <advance width="749"/>
  <unicode hex="A69A"/>
  <anchor x="398" y="0" name="bottom"/>
  <anchor x="398" y="725" name="top"/>
  <outline>
    <contour>
      <point x="318" y="661" type="line"/>
      <point x="318" y="29" type="line"/>
      <point x="423" y="29" type="line"/>
      <point x="423" y="661" type="line"/>
    </contour>
    <component base="uni04E8"/>
  </outline>
</glyph>
<glyph name="uniA69E" format="2">
  <unicode hex="A69E"/>
  <outline>
    <contour>
      <point x="48" y="754" type="line"/>
      <point x="-48" y="754" type="line"/>
      <point x="-48" y="621" type="line"/>
      <point x="-176" y="613"/>
      <point x="-232" y="545"/>
      <point x="-232" y="447" type="curve" smooth="yes"/>
      <point x="-232" y="351"/>
      <point x="-167" y="283"/>
      <point x="-47" y="273" type="curve"/>
      <point x="-47" y="124" type="line"/>
      <point x="48" y="124" type="line"/>
      <point x="48" y="273" type="line"/>
      <point x="172" y="283"/>
      <point x="231" y="351"/>
      <point x="231" y="447" type="curve" smooth="yes"/>
      <point x="231" y="544"/>
      <point x="168" y="611"/>
      <point x="48" y="621" type="curve"/>
    </contour>
    <contour>
      <point x="-48" y="546" type="curve"/>
      <point x="-48" y="349" type="line"/>
      <point x="-94" y="356"/>
      <point x="-123" y="394"/>
      <point x="-123" y="447" type="curve"/>
      <point x="-123" y="499"/>
      <point x="-91" y="538"/>
    </contour>
    <contour>
      <point x="48" y="544" type="line"/>
      <point x="91" y="537"/>
      <point x="122" y="499"/>
      <point x="122" y="447" type="curve"/>
      <point x="122" y="394"/>
      <point x="93" y="356"/>
      <point x="48" y="349" type="curve"/>
    </contour>
  </outline>
</glyph>
<glyph name="uniA71C" format="2">
  <advance width="457"/>
  <unicode hex="A71C"/>
  <outline>
    <contour>
      <point x="229" y="570" type="line"/>
      <point x="391" y="760" type="line"/>
      <point x="264" y="760" type="line"/>
      <point x="264" y="890" type="line"/>
      <point x="193" y="890" type="line"/>
      <point x="193" y="760" type="line"/>
      <point x="66" y="760" type="line"/>
    </contour>
  </outline>
</glyph>
<glyph name="uniA730" format="2">
  <advance width="418"/>
  <unicode hex="A730"/>
  <outline>
    <contour>
      <point x="201" y="0" type="line"/>
      <point x="201" y="216" type="line"/>
      <point x="367" y="216" type="line"/>
      <point x="367" y="310" type="line"/>
      <point x="201" y="310" type="line"/>
      <point x="201" y="451" type="line"/>
      <point x="380" y="451" type="line"/>
      <point x="380" y="546" type="line"/>
      <point x="77" y="546" type="line"/>
      <point x="77" y="0" type="line"/>
    </contour>
  </outline>
</glyph>
<glyph name="uniA731" format="2">
  <advance width="429"/>
  <unicode hex="A731"/>
  <outline>
    <contour>
      <point x="394" y="151" type="curve"/>
      <point x="394" y="237"/>
      <point x="348" y="276"/>
      <point x="270" y="315" type="curve" smooth="yes"/>
      <point x="200" y="350"/>
      <point x="171" y="365"/>
      <point x="171" y="404" type="curve" smooth="yes"/>
      <point x="171" y="437"/>
      <point x="190" y="460"/>
      <point x="229" y="460" type="curve" smooth="yes"/>
      <point x="267" y="460"/>
      <point x="307" y="448"/>
      <point x="353" y="427" type="curve"/>
      <point x="393" y="518" type="line"/>
      <point x="346" y="543"/>
      <point x="294" y="557"/>
      <point x="231" y="557" type="curve" smooth="yes"/>
      <point x="115" y="557"/>
      <point x="45" y="499"/>
      <point x="45" y="400" type="curve" smooth="yes"/>
      <point x="45" y="300"/>
      <point x="107" y="260"/>
      <point x="170" y="234" type="curve" smooth="yes"/>
      <point x="234" y="208"/>
      <point x="268" y="186"/>
      <point x="268" y="145" type="curve" smooth="yes"/>
      <point x="268" y="111"/>
      <point x="247" y="87"/>
      <point x="200" y="87" type="curve" smooth="yes"/>
      <point x="150" y="87"/>
      <point x="93" y="109"/>
      <point x="40" y="132" type="curve"/>
      <point x="40" y="23" type="line"/>
      <point x="86" y="2"/>
      <point x="133" y="-10"/>
      <point x="196" y="-10" type="curve" smooth="yes"/>
      <point x="329" y="-10"/>
      <point x="394" y="53"/>
    </contour>
  </outline>
</glyph>
<glyph name="uniA734" format="2">
  <advance width="1135"/>
  <unicode hex="A734"/>
  <anchor x="760" y="0" name="bottom"/>
  <anchor x="760" y="357" name="center"/>
  <anchor x="760" y="725" name="top"/>
  <anchor x="1116" y="725" name="topright"/>
  <outline>
    <contour>
      <point x="215" y="170" type="line"/>
      <point x="629" y="170" type="line"/>
      <point x="437" y="717" type="line"/>
      <point x="252" y="717" type="line"/>
      <point x="0" y="0" type="line"/>
      <point x="163" y="0" type="line"/>
    </contour>
    <contour>
      <point x="439" y="297" type="line"/>
      <point x="253" y="297" type="line"/>
      <point x="304" y="463" type="line" smooth="yes"/>
      <point x="311" y="485"/>
      <point x="335" y="566"/>
      <point x="345" y="606" type="curve"/>
      <point x="355" y="566"/>
      <point x="377" y="496"/>
      <point x="387" y="463" type="curve" smooth="yes"/>
    </contour>
    <component base="O" xOffset="386"/>
  </outline>
</glyph>
<glyph name="uniA740" format="2">
  <advance width="635"/>
  <unicode hex="A740"/>
  <anchor x="333" y="0" name="bottom"/>
  <anchor x="336" y="714" name="top"/>
  <anchor x="617" y="714" name="topright"/>
  <outline>
    <contour>
      <point x="22" y="524" type="line"/>
      <point x="307" y="524" type="line"/>
      <point x="307" y="648" type="line"/>
      <point x="22" y="648" type="line"/>
    </contour>
    <component base="K"/>
  </outline>
</glyph>
<glyph name="uniA741" format="2">
  <advance width="601"/>
  <unicode hex="A741"/>
  <anchor x="310" y="0" name="bottom"/>
  <anchor x="159" y="760" name="top"/>
  <anchor x="600" y="760" name="topright"/>
  <outline>
    <contour>
      <point x="381" y="681" type="line"/>
      <point x="2" y="681" type="line"/>
      <point x="2" y="584" type="line"/>
      <point x="381" y="584" type="line"/>
    </contour>
    <component base="k"/>
  </outline>
</glyph>
<glyph name="uniA744" format="2">
  <advance width="656"/>
  <unicode hex="A744"/>
  <anchor x="333" y="0" name="bottom"/>
  <anchor x="336" y="714" name="top"/>
  <anchor x="617" y="714" name="topright"/>
  <outline>
    <contour>
      <point x="281" y="121" type="line"/>
      <point x="336" y="40" type="line"/>
      <point x="657" y="250" type="line"/>
      <point x="601" y="331" type="line"/>
    </contour>
    <component base="uniA740"/>
  </outline>
</glyph>
<glyph name="uniA746" format="2">
  <advance width="701"/>
  <unicode hex="A746"/>
  <outline>
    <contour>
      <point x="402" y="463" type="line"/>
      <point x="241" y="413" type="line"/>
      <point x="241" y="0" type="line"/>
      <point x="668" y="0" type="line"/>
      <point x="668" y="125" type="line"/>
      <point x="402" y="125" type="line"/>
    </contour>
    <contour>
      <point x="79" y="413" type="line"/>
      <point x="241" y="463" type="line"/>
      <point x="241" y="714" type="line"/>
      <point x="79" y="714" type="line"/>
    </contour>
    <contour>
      <point x="79" y="414" type="line"/>
      <point x="79" y="363" type="line"/>
      <point x="402" y="463" type="line"/>
      <point x="402" y="514" type="line"/>
    </contour>
  </outline>
</glyph>
<glyph name="uniA749" format="2">
  <advance width="296"/>
  <unicode hex="A749"/>
  <anchor x="148" y="0" name="bottom"/>
  <anchor x="148" y="273" name="center"/>
  <anchor x="148" y="760" name="top"/>
  <anchor x="247" y="760" name="topright"/>
  <outline>
    <contour>
      <point x="282" y="681" type="line"/>
      <point x="13" y="681" type="line"/>
      <point x="13" y="584" type="line"/>
      <point x="282" y="584" type="line"/>
    </contour>
    <component base="l"/>
  </outline>
</glyph>
<glyph name="uniA74A" format="2">
  <advance width="749"/>
  <unicode hex="A74A"/>
  <anchor x="374" y="0" name="bottom"/>
  <anchor x="374" y="357" name="center"/>
  <anchor x="374" y="725" name="top"/>
  <anchor x="730" y="725" name="topright"/>
  <outline>
    <contour>
      <point x="0" y="309" type="line"/>
      <point x="750" y="309" type="line"/>
      <point x="750" y="421" type="line"/>
      <point x="0" y="421" type="line"/>
    </contour>
    <component base="O"/>
  </outline>
</glyph>
<glyph name="uniA751" format="2">
  <advance width="600"/>
  <unicode hex="A751"/>
  <anchor x="149" y="-240" name="bottom"/>
  <anchor x="315" y="546" name="top"/>
  <anchor x="581" y="546" name="topright"/>
  <outline>
    <contour>
      <point x="2" y="-161" type="line"/>
      <point x="381" y="-161" type="line"/>
      <point x="381" y="-64" type="line"/>
      <point x="2" y="-64" type="line"/>
    </contour>
    <component base="p"/>
  </outline>
</glyph>
<glyph name="uniA756" format="2">
  <advance width="748"/>
  <unicode hex="A756"/>
  <anchor x="374" y="-170" name="bottom"/>
  <anchor x="374" y="725" name="top"/>
  <anchor x="730" y="725" name="topright"/>
  <outline>
    <contour>
      <point x="364" y="-97" type="line"/>
      <point x="399" y="-184" type="line"/>
      <point x="756" y="-43" type="line"/>
      <point x="720" y="44" type="line"/>
    </contour>
    <component base="Q"/>
  </outline>
</glyph>
<glyph name="uniA757" format="2">
  <advance width="600"/>
  <unicode hex="A757"/>
  <anchor x="452" y="-240" name="bottom"/>
  <anchor x="300" y="546" name="top"/>
  <anchor x="557" y="546" name="topright"/>
  <outline>
    <contour>
      <point x="232" y="-161" type="line"/>
      <point x="611" y="-161" type="line"/>
      <point x="611" y="-64" type="line"/>
      <point x="232" y="-64" type="line"/>
    </contour>
    <component base="q"/>
  </outline>
</glyph>
<glyph name="uniA75C" format="2">
  <advance width="690"/>
  <unicode hex="A75C"/>
  <outline>
    <contour>
      <point x="674" y="138" type="line"/>
      <point x="674" y="255" type="line"/>
      <point x="263" y="255" type="line"/>
      <point x="263" y="260" type="line"/>
      <point x="320" y="331" type="line" smooth="yes"/>
      <point x="393" y="422"/>
      <point x="443" y="475"/>
      <point x="443" y="563" type="curve" smooth="yes"/>
      <point x="443" y="670"/>
      <point x="376" y="725"/>
      <point x="262" y="725" type="curve" smooth="yes"/>
      <point x="152" y="725"/>
      <point x="99" y="684"/>
      <point x="51" y="639" type="curve"/>
      <point x="139" y="542" type="line"/>
      <point x="176" y="579"/>
      <point x="208" y="599"/>
      <point x="237" y="599" type="curve" smooth="yes"/>
      <point x="267" y="599"/>
      <point x="283" y="575"/>
      <point x="283" y="539" type="curve" smooth="yes"/>
      <point x="283" y="482"/>
      <point x="258" y="451"/>
      <point x="182" y="365" type="curve" smooth="yes"/>
      <point x="56" y="221" type="line"/>
      <point x="57" y="138" type="line"/>
    </contour>
    <contour>
      <point x="613" y="0" type="line"/>
      <point x="613" y="399" type="line"/>
      <point x="454" y="399" type="line"/>
      <point x="454" y="0" type="line"/>
    </contour>
  </outline>
</glyph>
<glyph name="uniA75E" format="2">
  <advance width="650"/>
  <unicode hex="A75E"/>
  <anchor x="313" y="0" name="bottom"/>
  <anchor x="316" y="714" name="top"/>
  <anchor x="613" y="714" name="topright"/>
  <outline>
    <contour>
      <point x="317" y="723" type="line"/>
      <point x="89" y="-9" type="line"/>
      <point x="158" y="-9" type="line"/>
      <point x="389" y="723" type="line"/>
    </contour>
    <component base="V"/>
  </outline>
</glyph>
<glyph name="uniA764" format="2">
  <advance width="591"/>
  <unicode hex="A764"/>
  <outline>
    <contour>
      <point x="315" y="502" type="curve" smooth="yes"/>
      <point x="241" y="502" type="line"/>
      <point x="241" y="561" type="line"/>
      <point x="346" y="561" type="line"/>
      <point x="346" y="660" type="line"/>
      <point x="241" y="660" type="line"/>
      <point x="241" y="714" type="line"/>
      <point x="79" y="714" type="line"/>
      <point x="79" y="660" type="line"/>
      <point x="0" y="660" type="line"/>
      <point x="0" y="561" type="line"/>
      <point x="79" y="561" type="line"/>
      <point x="79" y="0" type="line"/>
      <point x="241" y="0" type="line"/>
      <point x="241" y="80" type="line"/>
      <point x="305" y="80" type="line" smooth="yes"/>
      <point x="501" y="80"/>
      <point x="555" y="186"/>
      <point x="555" y="296" type="curve" smooth="yes"/>
      <point x="555" y="424"/>
      <point x="482" y="502"/>
    </contour>
    <contour>
      <point x="277" y="192" type="curve" smooth="yes"/>
      <point x="241" y="192" type="line"/>
      <point x="241" y="389" type="line"/>
      <point x="287" y="389" type="line" smooth="yes"/>
      <point x="359" y="389"/>
      <point x="392" y="362"/>
      <point x="392" y="296" type="curve" smooth="yes"/>
      <point x="392" y="224"/>
      <point x="355" y="192"/>
    </contour>
  </outline>
</glyph>
<glyph name="uniA765" format="2">
  <advance width="600"/>
  <unicode hex="A765"/>
  <anchor x="301" y="-240" name="bottom"/>
  <anchor x="301" y="760" name="top"/>
  <outline>
    <contour>
      <point x="381" y="681" type="line"/>
      <point x="18" y="681" type="line"/>
      <point x="18" y="584" type="line"/>
      <point x="381" y="584" type="line"/>
    </contour>
    <component base="thorn"/>
  </outline>
</glyph>
<glyph name="uniA767" format="2">
  <advance width="600"/>
  <unicode hex="A767"/>
  <anchor x="301" y="-240" name="bottom"/>
  <anchor x="301" y="760" name="top"/>
  <outline>
    <contour>
      <point x="381" y="-63" type="line"/>
      <point x="18" y="-63" type="line"/>
      <point x="18" y="-160" type="line"/>
      <point x="381" y="-160" type="line"/>
    </contour>
    <component base="thorn"/>
  </outline>
</glyph>
<glyph name="uniA768" format="2">
  <advance width="739"/>
  <unicode hex="A768"/>
  <outline>
    <contour>
      <point x="276" y="-114" type="line"/>
      <point x="276" y="-11" type="line"/>
      <point x="743" y="714" type="line"/>
      <point x="558" y="714" type="line"/>
      <point x="380" y="392" type="line" smooth="yes"/>
      <point x="341" y="322"/>
      <point x="299" y="254"/>
      <point x="265" y="181" type="curve"/>
      <point x="257" y="183" type="line"/>
      <point x="267" y="232"/>
      <point x="276" y="311"/>
      <point x="276" y="365" type="curve" smooth="yes"/>
      <point x="276" y="588" type="line"/>
      <point x="358" y="628" type="line"/>
      <point x="358" y="714" type="line"/>
      <point x="31" y="714" type="line"/>
      <point x="31" y="628" type="line"/>
      <point x="114" y="588" type="line"/>
      <point x="114" y="-114" type="line"/>
      <point x="31" y="-154" type="line"/>
      <point x="31" y="-240" type="line"/>
      <point x="358" y="-240" type="line"/>
      <point x="358" y="-154" type="line"/>
    </contour>
  </outline>
</glyph>
<glyph name="uniA771" format="2">
  <advance width="823"/>
  <unicode hex="A771"/>
  <anchor x="289" y="0" name="bottom"/>
  <anchor x="300" y="273" name="center"/>
  <anchor x="287" y="760" name="top"/>
  <anchor x="557" y="760" name="topright"/>
  <outline>
    <contour>
      <point x="511" y="0" type="line"/>
      <point x="818" y="0" type="line"/>
      <point x="818" y="114" type="line"/>
      <point x="511" y="114" type="line"/>
    </contour>
    <contour>
      <point x="660" y="269" type="line"/>
      <point x="508" y="-157" type="line"/>
      <point x="605" y="-157" type="line"/>
      <point x="756" y="269" type="line"/>
    </contour>
    <component base="d"/>
  </outline>
</glyph>
<glyph name="uniA776" format="2">
  <advance width="794"/>
  <unicode hex="A776"/>
  <anchor x="294" y="0" name="bottom"/>
  <anchor x="294" y="546" name="top"/>
  <outline>
    <contour>
      <point x="482" y="0" type="line"/>
      <point x="789" y="0" type="line"/>
      <point x="789" y="114" type="line"/>
      <point x="482" y="114" type="line"/>
    </contour>
    <contour>
      <point x="631" y="269" type="line"/>
      <point x="479" y="-157" type="line"/>
      <point x="576" y="-157" type="line"/>
      <point x="727" y="269" type="line"/>
    </contour>
    <component base="uni0280"/>
  </outline>
</glyph>
<glyph name="uniA790" format="2">
  <advance width="849"/>
  <unicode hex="A790"/>
  <anchor x="388" y="0" name="bottom"/>
  <anchor x="388" y="714" name="top"/>
  <anchor x="756" y="714" name="topright"/>
  <outline>
    <contour>
      <point x="653" y="0" type="line"/>
      <point x="653" y="-208" type="line"/>
      <point x="799" y="-208" type="line"/>
      <point x="799" y="120" type="line"/>
      <point x="693" y="120" type="line"/>
    </contour>
    <component base="N"/>
  </outline>
</glyph>
<glyph name="uniA792" format="2">
  <advance width="604"/>
  <unicode hex="A792"/>
  <anchor x="352" y="0" name="bottom"/>
  <anchor x="349" y="714" name="top"/>
  <anchor x="585" y="714" name="topright"/>
  <outline>
    <contour>
      <point x="-3" y="291" type="line"/>
      <point x="363" y="291" type="line"/>
      <point x="363" y="415" type="line"/>
      <point x="-3" y="415" type="line"/>
    </contour>
    <component base="C"/>
  </outline>
</glyph>
<glyph name="uniA799" format="2">
  <advance width="376"/>
  <unicode hex="A799"/>
  <anchor x="172" y="0" name="bottom"/>
  <anchor x="256" y="765" name="top"/>
  <anchor x="399" y="765" name="topright"/>
  <outline>
    <contour>
      <point x="378" y="341" type="line"/>
      <point x="23" y="340" type="line"/>
      <point x="23" y="243" type="line"/>
      <point x="378" y="244" type="line"/>
    </contour>
    <component base="f"/>
  </outline>
</glyph>
<glyph name="uniA7A4" format="2">
  <advance width="775"/>
  <unicode hex="A7A4"/>
  <anchor x="388" y="0" name="bottom"/>
  <anchor x="388" y="714" name="top"/>
  <anchor x="756" y="714" name="topright"/>
  <outline>
    <contour>
      <point x="3" y="348" type="line"/>
      <point x="3" y="259" type="line"/>
      <point x="777" y="368" type="line"/>
      <point x="777" y="457" type="line"/>
    </contour>
    <component base="N"/>
  </outline>
</glyph>
<glyph name="uniA7A5" format="2">
  <advance width="657"/>
  <unicode hex="A7A5"/>
  <anchor x="312" y="0" name="bottom"/>
  <anchor x="312" y="546" name="top"/>
  <anchor x="574" y="546" name="topright"/>
  <outline>
    <contour>
      <point x="3" y="272" type="line"/>
      <point x="3" y="183" type="line"/>
      <point x="654" y="273" type="line"/>
      <point x="654" y="362" type="line"/>
    </contour>
    <component base="n"/>
  </outline>
</glyph>
<glyph name="uniA7A7" format="2">
  <advance width="454"/>
  <unicode hex="A7A7"/>
  <anchor x="151" y="0" name="bottom"/>
  <anchor x="248" y="546" name="top"/>
  <anchor x="415" y="546" name="topright"/>
  <outline>
    <contour>
      <point x="-9" y="271" type="line"/>
      <point x="-9" y="182" type="line"/>
      <point x="423" y="241" type="line"/>
      <point x="423" y="330" type="line"/>
    </contour>
    <component base="r"/>
  </outline>
</glyph>
<glyph name="uniA7A9" format="2">
  <advance width="477"/>
  <unicode hex="A7A9"/>
  <anchor x="249" y="0" name="bottom"/>
  <anchor x="249" y="546" name="top"/>
  <anchor x="448" y="546" name="topright"/>
  <outline>
    <contour>
      <point x="3" y="289" type="line"/>
      <point x="3" y="200" type="line"/>
      <point x="475" y="268" type="line"/>
      <point x="475" y="357" type="line"/>
    </contour>
    <component base="s"/>
  </outline>
</glyph>
<glyph name="uniA7AE" format="2">
  <advance width="314"/>
  <unicode hex="A7AE"/>
  <outline>
    <contour>
      <point x="283" y="0" type="line"/>
      <point x="283" y="66" type="line"/>
      <point x="219" y="96" type="line"/>
      <point x="219" y="450" type="line"/>
      <point x="283" y="480" type="line"/>
      <point x="283" y="546" type="line"/>
      <point x="31" y="546" type="line"/>
      <point x="31" y="480" type="line"/>
      <point x="95" y="450" type="line"/>
      <point x="95" y="96" type="line"/>
      <point x="31" y="66" type="line"/>
      <point x="31" y="0" type="line"/>
    </contour>
  </outline>
</glyph>
<glyph name="uniA7B9" format="2">
  <advance width="624"/>
  <unicode hex="A7B9"/>
  <anchor x="304" y="0" name="bottom"/>
  <anchor x="312" y="546" name="top"/>
  <anchor x="583" y="546" name="topright"/>
  <outline>
    <contour>
      <point x="101" y="-49" type="line"/>
      <point x="613" y="506" type="line"/>
      <point x="545" y="571" type="line"/>
      <point x="32" y="14" type="line"/>
    </contour>
    <component base="u"/>
  </outline>
</glyph>
<glyph name="uniA7C7" format="2">
  <advance width="693"/>
  <unicode hex="A7C7"/>
  <anchor x="331" y="0" name="bottom"/>
  <anchor x="347" y="357" name="center"/>
  <anchor x="347" y="714" name="top"/>
  <anchor x="674" y="714" name="topright"/>
  <outline>
    <contour>
      <point x="177" y="320" type="line"/>
      <point x="552" y="320" type="line"/>
      <point x="552" y="405" type="line"/>
      <point x="177" y="405" type="line"/>
    </contour>
    <component base="D"/>
  </outline>
</glyph>
<glyph name="uniA7C8" format="2">
  <advance width="600"/>
  <unicode hex="A7C8"/>
  <anchor x="289" y="0" name="bottom"/>
  <anchor x="300" y="273" name="center"/>
  <anchor x="287" y="760" name="top"/>
  <anchor x="557" y="760" name="topright"/>
  <outline>
    <contour>
      <point x="124" y="233" type="line"/>
      <point x="460" y="233" type="line"/>
      <point x="460" y="318" type="line"/>
      <point x="124" y="318" type="line"/>
    </contour>
    <component base="d"/>
  </outline>
</glyph>
<glyph name="uniA7C9" format="2">
  <advance width="529"/>
  <unicode hex="A7C9"/>
  <anchor x="261" y="0" name="bottom"/>
  <anchor x="269" y="714" name="top"/>
  <anchor x="511" y="714" name="topright"/>
  <outline>
    <contour>
      <point x="14" y="325" type="line"/>
      <point x="520" y="325" type="line"/>
      <point x="520" y="410" type="line"/>
      <point x="14" y="410" type="line"/>
    </contour>
    <component base="S"/>
  </outline>
</glyph>
<glyph name="uniA7CA" format="2">
  <advance width="477"/>
  <unicode hex="A7CA"/>
  <anchor x="235" y="0" name="bottom"/>
  <anchor x="235" y="546" name="top"/>
  <anchor x="448" y="546" name="topright"/>
  <outline>
    <contour>
      <point x="14" y="225" type="line"/>
      <point x="476" y="225" type="line"/>
      <point x="476" y="310" type="line"/>
      <point x="14" y="310" type="line"/>
    </contour>
    <component base="s"/>
  </outline>
</glyph>
<glyph name="uniA7FA" format="2">
  <advance width="812"/>
  <unicode hex="A7FA"/>
  <anchor x="406" y="0" name="bottom"/>
  <anchor x="406" y="546" name="top"/>
  <outline>
    <contour>
      <point x="735" y="0" type="line"/>
      <point x="735" y="546" type="line"/>
      <point x="612" y="546" type="line"/>
      <point x="612" y="96" type="line"/>
      <point x="468" y="96" type="line"/>
      <point x="468" y="546" type="line"/>
      <point x="345" y="546" type="line"/>
      <point x="345" y="96" type="line"/>
      <point x="201" y="96" type="line"/>
      <point x="201" y="546" type="line"/>
      <point x="77" y="546" type="line"/>
      <point x="77" y="0" type="line"/>
    </contour>
  </outline>
</glyph>
<glyph name="uniA7FE" format="2">
  <advance width="389"/>
  <unicode hex="A7FE"/>
  <outline>
    <contour>
      <point x="358" y="0" type="line"/>
      <point x="358" y="86" type="line"/>
      <point x="276" y="126" type="line"/>
      <point x="276" y="803" type="line"/>
      <point x="358" y="843" type="line"/>
      <point x="358" y="929" type="line"/>
      <point x="31" y="929" type="line"/>
      <point x="31" y="843" type="line"/>
      <point x="114" y="803" type="line"/>
      <point x="114" y="126" type="line"/>
      <point x="31" y="86" type="line"/>
      <point x="31" y="0" type="line"/>
    </contour>
  </outline>
</glyph>
<glyph name="uniAB30" format="2">
  <advance width="619"/>
  <unicode hex="AB30"/>
  <anchor x="302" y="0" name="bottom"/>
  <anchor x="302" y="546" name="top"/>
  <outline>
    <contour>
      <point x="3" y="324" type="line"/>
      <point x="3" y="235" type="line"/>
      <point x="606" y="235" type="line"/>
      <point x="606" y="324" type="line"/>
    </contour>
    <component base="uni0251"/>
  </outline>
</glyph>
<glyph name="uniAB42" format="2">
  <advance width="921"/>
  <unicode hex="AB42"/>
  <anchor x="461" y="546" name="bottom"/>
  <anchor x="461" y="0" name="top"/>
  <outline>
    <contour>
      <point x="423" y="324" type="line"/>
      <point x="423" y="225" type="line"/>
      <point x="795" y="225" type="line"/>
      <point x="795" y="324" type="line"/>
    </contour>
    <component base="oe" xScale="-1" yScale="-1" xOffset="921" yOffset="546"/>
  </outline>
</glyph>
<glyph name="uniAB60" format="2">
  <advance width="834"/>
  <unicode hex="AB60"/>
  <outline>
    <contour>
      <point x="357" y="0" type="line"/>
      <point x="573" y="0" type="line" smooth="yes"/>
      <point x="742" y="0"/>
      <point x="803" y="68"/>
      <point x="803" y="174" type="curve" smooth="yes"/>
      <point x="803" y="282"/>
      <point x="741" y="335"/>
      <point x="581" y="335" type="curve" smooth="yes"/>
      <point x="517" y="335" type="line"/>
      <point x="517" y="546" type="line"/>
      <point x="357" y="546" type="line"/>
    </contour>
    <contour>
      <point x="68" y="0" type="line"/>
      <point x="228" y="0" type="line"/>
      <point x="228" y="546" type="line"/>
      <point x="68" y="546" type="line"/>
    </contour>
    <contour>
      <point x="517" y="103" type="line"/>
      <point x="517" y="232" type="line"/>
      <point x="563" y="232" type="line" smooth="yes"/>
      <point x="621" y="232"/>
      <point x="643" y="214"/>
      <point x="643" y="172" type="curve" smooth="yes"/>
      <point x="643" y="122"/>
      <point x="614" y="103"/>
      <point x="565" y="103" type="curve" smooth="yes"/>
    </contour>
  </outline>
</glyph>
<glyph name="uniFE21" format="2">
  <unicode hex="FE21"/>
  <outline>
    <contour>
      <point x="0" y="785" type="curve" smooth="yes"/>
      <point x="-5" y="785" type="line"/>
      <point x="-5" y="686" type="line"/>
      <point x="0" y="686" type="line" smooth="yes"/>
      <point x="142" y="686"/>
      <point x="227" y="645"/>
      <point x="274" y="587" type="curve"/>
      <point x="377" y="587" type="line"/>
      <point x="331" y="716"/>
      <point x="207" y="785"/>
    </contour>
  </outline>
</glyph>
<glyph name="uniFE22" format="2">
  <unicode hex="FE22"/>
  <outline>
    <contour>
      <point x="0" y="633" type="curve"/>
      <point x="0" y="735" type="line"/>
      <point x="-63" y="748"/>
      <point x="-131" y="760"/>
      <point x="-210" y="760" type="curve" smooth="yes"/>
      <point x="-294" y="760"/>
      <point x="-366" y="711"/>
      <point x="-375" y="607" type="curve"/>
      <point x="-299" y="607" type="line"/>
      <point x="-286" y="642"/>
      <point x="-252" y="661"/>
      <point x="-217" y="661" type="curve" smooth="yes"/>
      <point x="-142" y="661"/>
      <point x="-75" y="648"/>
    </contour>
  </outline>
</glyph>
<glyph name="uniFE23" format="2">
  <unicode hex="FE23"/>
  <outline>
    <contour>
      <point x="0" y="735" type="curve"/>
      <point x="0" y="633" type="line"/>
      <point x="64" y="620"/>
      <point x="134" y="608"/>
      <point x="209" y="608" type="curve" smooth="yes"/>
      <point x="295" y="608"/>
      <point x="367" y="657"/>
      <point x="376" y="760" type="curve"/>
      <point x="300" y="760" type="line"/>
      <point x="286" y="725"/>
      <point x="253" y="707"/>
      <point x="216" y="707" type="curve" smooth="yes"/>
      <point x="138" y="707"/>
      <point x="73" y="720"/>
    </contour>
  </outline>
</glyph>
<glyph name="uniFE2E" format="2">
  <unicode hex="FE2E"/>
  <outline>
    <contour>
      <point x="-46" y="606" type="curve"/>
      <point x="157" y="606" type="line"/>
      <point x="157" y="679" type="line"/>
      <point x="-94" y="679" type="line" smooth="yes"/>
      <point x="-139" y="679"/>
      <point x="-157" y="658"/>
      <point x="-157" y="622" type="curve" smooth="yes"/>
      <point x="-157" y="586"/>
      <point x="-139" y="560"/>
      <point x="-102" y="560" type="curve" smooth="yes"/>
      <point x="-70" y="560"/>
      <point x="-50" y="578"/>
    </contour>
  </outline>
</glyph>
<glyph name="uniFE2F" format="2">
  <unicode hex="FE2F"/>
  <outline>
    <contour>
      <point x="-158" y="606" type="line"/>
      <point x="93" y="606" type="line"/>
      <point x="143" y="606"/>
      <point x="157" y="632"/>
      <point x="157" y="669" type="curve" smooth="yes"/>
      <point x="157" y="704"/>
      <point x="139" y="725"/>
      <point x="101" y="725" type="curve" smooth="yes"/>
      <point x="70" y="725"/>
      <point x="49" y="708"/>
      <point x="46" y="679" type="curve"/>
      <point x="-158" y="679" type="line"/>
    </contour>
  </outline>
</glyph>
<glyph name="uni02E6_uni02E6_uni02E5" format="2">
  <advance width="509"/>
  <outline>
    <contour>
      <point x="374" y="0" type="line"/>
      <point x="436" y="0" type="line"/>
      <point x="436" y="688" type="line"/>
      <point x="374" y="688" type="line"/>
      <point x="229" y="552" type="line"/>
      <point x="73" y="552" type="line"/>
      <point x="73" y="486" type="line"/>
      <point x="256" y="486" type="line"/>
      <point x="374" y="596" type="line"/>
    </contour>
  </outline>
</glyph>
<glyph name="uni03D0.alt" format="2">
  <advance width="629"/>
  <anchor x="315" y="-10" name="bottom"/>
  <anchor x="315" y="765" name="top"/>
  <outline>
    <contour>
      <point x="316" y="765" type="curve" smooth="yes"/>
      <point x="173" y="765"/>
      <point x="66" y="696"/>
      <point x="66" y="535" type="curve" smooth="yes"/>
      <point x="66" y="203" type="line"/>
      <point x="66" y="66"/>
      <point x="160" y="-10"/>
      <point x="323" y="-10" type="curve" smooth="yes"/>
      <point x="486" y="-10"/>
      <point x="589" y="66"/>
      <point x="589" y="203" type="curve" smooth="yes"/>
      <point x="589" y="330"/>
      <point x="519" y="390"/>
      <point x="416" y="402" type="curve"/>
      <point x="416" y="406" type="line"/>
      <point x="506" y="422"/>
      <point x="552" y="478"/>
      <point x="552" y="574" type="curve" smooth="yes"/>
      <point x="552" y="701"/>
      <point x="453" y="765"/>
    </contour>
    <contour>
      <point x="311" y="651" type="curve" smooth="yes"/>
      <point x="360" y="651"/>
      <point x="393" y="621"/>
      <point x="393" y="559" type="curve" smooth="yes"/>
      <point x="393" y="497"/>
      <point x="365" y="455"/>
      <point x="306" y="455" type="curve" smooth="yes"/>
      <point x="281" y="455" type="line"/>
      <point x="281" y="341" type="line"/>
      <point x="314" y="341" type="line" smooth="yes"/>
      <point x="375" y="341"/>
      <point x="426" y="303"/>
      <point x="426" y="220" type="curve" smooth="yes"/>
      <point x="426" y="145"/>
      <point x="391" y="104"/>
      <point x="325" y="104" type="curve" smooth="yes"/>
      <point x="258" y="104"/>
      <point x="226" y="148"/>
      <point x="226" y="230" type="curve" smooth="yes"/>
      <point x="226" y="511" type="line"/>
      <point x="226" y="620"/>
      <point x="265" y="651"/>
    </contour>
  </outline>
</glyph>
<glyph name="uni1FCD02C9" format="2">
  <advance width="376"/>
  <anchor x="187" y="533" name="_top"/>
  <anchor x="189" y="876" name="top"/>
  <outline>
    <contour>
      <point x="301" y="866" type="curve"/>
      <point x="169" y="866" type="line"/>
      <point x="169" y="856" type="line"/>
      <point x="189" y="813"/>
      <point x="231" y="748"/>
      <point x="263" y="706" type="curve"/>
      <point x="339" y="706" type="line"/>
      <point x="339" y="718" type="line"/>
      <point x="329" y="753"/>
      <point x="311" y="817"/>
    </contour>
    <contour>
      <point x="348" y="676" type="line"/>
      <point x="26" y="676" type="line"/>
      <point x="26" y="583" type="line"/>
      <point x="348" y="583" type="line"/>
    </contour>
    <contour>
      <point x="95" y="876" type="curve" smooth="yes"/>
      <point x="61" y="876"/>
      <point x="40" y="859"/>
      <point x="40" y="828" type="curve"/>
      <point x="40" y="798"/>
      <point x="54" y="780"/>
      <point x="89" y="779" type="curve"/>
      <point x="89" y="756"/>
      <point x="66" y="741"/>
      <point x="33" y="738" type="curve"/>
      <point x="33" y="696" type="line"/>
      <point x="118" y="701"/>
      <point x="161" y="750"/>
      <point x="161" y="806" type="curve" smooth="yes"/>
      <point x="161" y="846"/>
      <point x="137" y="876"/>
    </contour>
  </outline>
</glyph>
<glyph name="uni1FCD0306" format="2">
  <advance width="386"/>
  <anchor x="193" y="530" name="_top"/>
  <anchor x="195" y="906" name="top"/>
  <outline>
    <contour>
      <point x="197" y="580" type="curve" smooth="yes"/>
      <point x="300" y="580"/>
      <point x="351" y="633"/>
      <point x="359" y="711" type="curve"/>
      <point x="283" y="711" type="line"/>
      <point x="274" y="678"/>
      <point x="253" y="662"/>
      <point x="195" y="662" type="curve" smooth="yes"/>
      <point x="141" y="662"/>
      <point x="118" y="679"/>
      <point x="106" y="711" type="curve"/>
      <point x="27" y="711" type="line"/>
      <point x="36" y="632"/>
      <point x="84" y="580"/>
    </contour>
    <contour>
      <point x="42" y="726" type="line"/>
      <point x="122" y="728"/>
      <point x="170" y="779"/>
      <point x="170" y="836" type="curve" smooth="yes"/>
      <point x="170" y="876"/>
      <point x="145" y="906"/>
      <point x="103" y="906" type="curve" smooth="yes"/>
      <point x="70" y="906"/>
      <point x="48" y="889"/>
      <point x="48" y="858" type="curve"/>
      <point x="48" y="828"/>
      <point x="62" y="810"/>
      <point x="97" y="809" type="curve"/>
      <point x="97" y="786"/>
      <point x="74" y="771"/>
      <point x="42" y="768" type="curve"/>
    </contour>
    <contour>
      <point x="272" y="736" type="curve"/>
      <point x="346" y="736" type="line"/>
      <point x="346" y="748" type="line"/>
      <point x="336" y="783"/>
      <point x="318" y="847"/>
      <point x="308" y="896" type="curve"/>
      <point x="176" y="896" type="line"/>
      <point x="176" y="886" type="line"/>
      <point x="196" y="843"/>
      <point x="239" y="778"/>
    </contour>
  </outline>
</glyph>
<glyph name="uni1FCE02C9" format="2">
  <advance width="376"/>
  <anchor x="187" y="533" name="_top"/>
  <anchor x="198" y="876" name="top"/>
  <outline>
    <contour>
      <point x="197" y="706" type="line"/>
      <point x="270" y="706" type="line"/>
      <point x="303" y="747"/>
      <point x="347" y="813"/>
      <point x="367" y="856" type="curve"/>
      <point x="367" y="866" type="line"/>
      <point x="234" y="866" type="line"/>
      <point x="225" y="817"/>
      <point x="207" y="753"/>
      <point x="197" y="718" type="curve"/>
    </contour>
    <contour>
      <point x="26" y="583" type="line"/>
      <point x="348" y="583" type="line"/>
      <point x="348" y="676" type="line"/>
      <point x="26" y="676" type="line"/>
    </contour>
    <contour>
      <point x="61" y="696" type="line"/>
      <point x="142" y="698"/>
      <point x="190" y="749"/>
      <point x="190" y="806" type="curve" smooth="yes"/>
      <point x="190" y="846"/>
      <point x="166" y="876"/>
      <point x="123" y="876" type="curve" smooth="yes"/>
      <point x="89" y="876"/>
      <point x="68" y="859"/>
      <point x="68" y="828" type="curve"/>
      <point x="68" y="798"/>
      <point x="82" y="780"/>
      <point x="117" y="779" type="curve"/>
      <point x="117" y="756"/>
      <point x="94" y="741"/>
      <point x="61" y="738" type="curve"/>
    </contour>
  </outline>
</glyph>
<glyph name="uni1FCE0306" format="2">
  <advance width="395"/>
  <anchor x="205" y="530" name="_top"/>
  <anchor x="207" y="906" name="top"/>
  <outline>
    <contour>
      <point x="201" y="580" type="curve" smooth="yes"/>
      <point x="304" y="580"/>
      <point x="355" y="633"/>
      <point x="363" y="711" type="curve"/>
      <point x="287" y="711" type="line"/>
      <point x="278" y="678"/>
      <point x="257" y="662"/>
      <point x="199" y="662" type="curve" smooth="yes"/>
      <point x="145" y="662"/>
      <point x="122" y="679"/>
      <point x="110" y="711" type="curve"/>
      <point x="31" y="711" type="line"/>
      <point x="40" y="632"/>
      <point x="88" y="580"/>
    </contour>
    <contour>
      <point x="72" y="726" type="line"/>
      <point x="153" y="728"/>
      <point x="201" y="779"/>
      <point x="201" y="836" type="curve" smooth="yes"/>
      <point x="201" y="876"/>
      <point x="176" y="906"/>
      <point x="134" y="906" type="curve" smooth="yes"/>
      <point x="101" y="906"/>
      <point x="79" y="889"/>
      <point x="79" y="858" type="curve"/>
      <point x="79" y="828"/>
      <point x="93" y="810"/>
      <point x="128" y="809" type="curve"/>
      <point x="128" y="786"/>
      <point x="104" y="771"/>
      <point x="72" y="768" type="curve"/>
    </contour>
    <contour>
      <point x="208" y="736" type="line"/>
      <point x="281" y="736" type="line"/>
      <point x="314" y="777"/>
      <point x="358" y="843"/>
      <point x="378" y="886" type="curve"/>
      <point x="378" y="896" type="line"/>
      <point x="245" y="896" type="line"/>
      <point x="236" y="847"/>
      <point x="218" y="783"/>
      <point x="208" y="748" type="curve"/>
    </contour>
  </outline>
</glyph>
<glyph name="uni1FDD02C9" format="2">
  <advance width="376"/>
  <anchor x="187" y="533" name="_top"/>
  <anchor x="189" y="876" name="top"/>
  <outline>
    <contour>
      <point x="304" y="866" type="curve"/>
      <point x="171" y="866" type="line"/>
      <point x="171" y="856" type="line"/>
      <point x="191" y="813"/>
      <point x="233" y="748"/>
      <point x="265" y="706" type="curve"/>
      <point x="341" y="706" type="line"/>
      <point x="341" y="718" type="line"/>
      <point x="331" y="753"/>
      <point x="313" y="817"/>
    </contour>
    <contour>
      <point x="348" y="676" type="line"/>
      <point x="26" y="676" type="line"/>
      <point x="26" y="583" type="line"/>
      <point x="348" y="583" type="line"/>
    </contour>
    <contour>
      <point x="100" y="876" type="curve" smooth="yes"/>
      <point x="58" y="876"/>
      <point x="34" y="846"/>
      <point x="34" y="806" type="curve" smooth="yes"/>
      <point x="34" y="749"/>
      <point x="81" y="698"/>
      <point x="162" y="696" type="curve"/>
      <point x="162" y="738" type="line"/>
      <point x="130" y="741"/>
      <point x="106" y="756"/>
      <point x="106" y="779" type="curve"/>
      <point x="141" y="780"/>
      <point x="155" y="798"/>
      <point x="155" y="828" type="curve" smooth="yes"/>
      <point x="155" y="859"/>
      <point x="134" y="876"/>
    </contour>
  </outline>
</glyph>
<glyph name="uni1FDD0306" format="2">
  <advance width="394"/>
  <anchor x="197" y="530" name="_top"/>
  <anchor x="199" y="906" name="top"/>
  <outline>
    <contour>
      <point x="201" y="580" type="curve" smooth="yes"/>
      <point x="304" y="580"/>
      <point x="355" y="633"/>
      <point x="363" y="711" type="curve"/>
      <point x="287" y="711" type="line"/>
      <point x="278" y="678"/>
      <point x="257" y="662"/>
      <point x="199" y="662" type="curve" smooth="yes"/>
      <point x="145" y="662"/>
      <point x="122" y="679"/>
      <point x="110" y="711" type="curve"/>
      <point x="31" y="711" type="line"/>
      <point x="40" y="632"/>
      <point x="88" y="580"/>
    </contour>
    <contour>
      <point x="173" y="726" type="curve"/>
      <point x="173" y="768" type="line"/>
      <point x="141" y="771"/>
      <point x="118" y="786"/>
      <point x="118" y="809" type="curve"/>
      <point x="153" y="810"/>
      <point x="167" y="828"/>
      <point x="167" y="858" type="curve" smooth="yes"/>
      <point x="167" y="889"/>
      <point x="145" y="906"/>
      <point x="112" y="906" type="curve" smooth="yes"/>
      <point x="69" y="906"/>
      <point x="45" y="876"/>
      <point x="45" y="836" type="curve" smooth="yes"/>
      <point x="45" y="779"/>
      <point x="93" y="728"/>
    </contour>
    <contour>
      <point x="274" y="736" type="curve"/>
      <point x="349" y="736" type="line"/>
      <point x="349" y="748" type="line"/>
      <point x="339" y="783"/>
      <point x="321" y="847"/>
      <point x="312" y="896" type="curve"/>
      <point x="179" y="896" type="line"/>
      <point x="179" y="886" type="line"/>
      <point x="199" y="843"/>
      <point x="242" y="778"/>
    </contour>
  </outline>
</glyph>
<glyph name="uni1FDE02C9" format="2">
  <advance width="376"/>
  <anchor x="188" y="533" name="_top"/>
  <anchor x="198" y="876" name="top"/>
  <outline>
    <contour>
      <point x="196" y="706" type="line"/>
      <point x="272" y="706" type="line"/>
      <point x="304" y="748"/>
      <point x="346" y="813"/>
      <point x="366" y="856" type="curve"/>
      <point x="366" y="866" type="line"/>
      <point x="233" y="866" type="line"/>
      <point x="224" y="817"/>
      <point x="206" y="753"/>
      <point x="196" y="718" type="curve"/>
    </contour>
    <contour>
      <point x="26" y="583" type="line"/>
      <point x="348" y="583" type="line"/>
      <point x="348" y="676" type="line"/>
      <point x="26" y="676" type="line"/>
    </contour>
    <contour>
      <point x="176" y="696" type="curve"/>
      <point x="176" y="738" type="line"/>
      <point x="144" y="741"/>
      <point x="121" y="756"/>
      <point x="121" y="779" type="curve"/>
      <point x="156" y="780"/>
      <point x="170" y="798"/>
      <point x="170" y="828" type="curve" smooth="yes"/>
      <point x="170" y="859"/>
      <point x="148" y="876"/>
      <point x="115" y="876" type="curve" smooth="yes"/>
      <point x="72" y="876"/>
      <point x="48" y="846"/>
      <point x="48" y="806" type="curve" smooth="yes"/>
      <point x="48" y="749"/>
      <point x="96" y="698"/>
    </contour>
  </outline>
</glyph>
<glyph name="uni1FDE0306" format="2">
  <advance width="395"/>
  <anchor x="204" y="530" name="_top"/>
  <anchor x="206" y="906" name="top"/>
  <outline>
    <contour>
      <point x="201" y="580" type="curve" smooth="yes"/>
      <point x="304" y="580"/>
      <point x="355" y="633"/>
      <point x="363" y="711" type="curve"/>
      <point x="287" y="711" type="line"/>
      <point x="278" y="678"/>
      <point x="257" y="662"/>
      <point x="199" y="662" type="curve" smooth="yes"/>
      <point x="145" y="662"/>
      <point x="122" y="679"/>
      <point x="110" y="711" type="curve"/>
      <point x="31" y="711" type="line"/>
      <point x="40" y="632"/>
      <point x="88" y="580"/>
    </contour>
    <contour>
      <point x="187" y="726" type="curve"/>
      <point x="187" y="768" type="line"/>
      <point x="155" y="771"/>
      <point x="132" y="786"/>
      <point x="132" y="809" type="curve"/>
      <point x="166" y="810"/>
      <point x="180" y="828"/>
      <point x="180" y="858" type="curve" smooth="yes"/>
      <point x="180" y="889"/>
      <point x="159" y="906"/>
      <point x="125" y="906" type="curve" smooth="yes"/>
      <point x="83" y="906"/>
      <point x="59" y="876"/>
      <point x="59" y="836" type="curve" smooth="yes"/>
      <point x="59" y="779"/>
      <point x="106" y="728"/>
    </contour>
    <contour>
      <point x="207" y="748" type="curve"/>
      <point x="207" y="736" type="line"/>
      <point x="282" y="736" type="line"/>
      <point x="314" y="778"/>
      <point x="357" y="843"/>
      <point x="377" y="886" type="curve"/>
      <point x="377" y="896" type="line"/>
      <point x="244" y="896" type="line"/>
      <point x="235" y="847"/>
      <point x="217" y="783"/>
    </contour>
  </outline>
</glyph>
